<?xml version="1.0" encoding="utf-8"?>
<!-- Generator: Adobe Illustrator 16.0.0, SVG Export Plug-In . SVG Version: 6.00 Build 0)  -->
<!DOCTYPE svg PUBLIC "-//W3C//DTD SVG 1.1//EN" "http://www.w3.org/Graphics/SVG/1.1/DTD/svg11.dtd">
<svg version="1.1" id="Layer_1" xmlns="http://www.w3.org/2000/svg" xmlns:xlink="http://www.w3.org/1999/xlink" x="0px" y="0px"
	 width="612px" height="309.89px" viewBox="0 0 612 309.89" enable-background="new 0 0 612 309.89" xml:space="preserve">
<path fill="#3F3F3F" d="M194.797,85.493c5.836-1.117,13.477-1.949,23.201-1.949c11.95,0,20.708,2.78,26.258,7.78
	c5.147,4.446,8.343,11.256,8.343,19.595c0,8.472-2.502,15.144-7.369,20.01c-6.39,6.807-16.811,10.279-28.618,10.279
	c-3.615,0-6.953-0.139-9.729-0.832v37.519h-12.087V85.493z M206.885,130.51c2.642,0.697,6.114,0.974,10.001,0.974
	c14.732,0,23.483-7.23,23.483-19.867c0-12.508-8.75-18.482-22.093-18.482c-5.277,0-9.309,0.554-11.391,0.97V130.51z"/>
<path fill="#3F3F3F" d="M276.905,84.241h12.23v83.506h40.017v10.148h-52.248V84.241z"/>
<path fill="#3F3F3F" d="M366.377,148.434l-9.725,29.462h-12.512l31.826-93.654h14.586l31.955,93.654h-12.916l-10.008-29.462H366.377
	z M397.086,138.987l-9.313-26.959c-1.943-6.114-3.334-11.672-4.719-17.089h-0.422c-1.246,5.417-2.783,11.256-4.588,16.954
	l-9.166,27.094H397.086z"/>
<path fill="#3F3F3F" d="M444.592,177.896V84.241h13.344l29.873,47.381c6.807,10.979,12.365,20.704,16.668,30.428l0.42-0.134
	c-1.107-12.508-1.391-23.899-1.391-38.351V84.241h11.4v93.654h-12.234l-29.734-47.528c-6.529-10.417-12.785-21.119-17.365-31.259
	l-0.42,0.139c0.697,11.811,0.836,23.067,0.836,38.627v40.021H444.592z"/>
<path fill="#3F3F3F" d="M562.131,94.523h-28.482V84.241h69.336v10.282h-28.625v83.372h-12.229V94.523z"/>
<path fill="#3F3F3F" d="M193.643,207.436h15.261v3.074h-11.563v9.422h10.682v3.023h-10.682v12.83h-3.698V207.436z"/>
<path fill="#3F3F3F" d="M231.812,207.436h3.703v25.276h12.109v3.073h-15.812V207.436z"/>
<path fill="#3F3F3F" d="M278.807,236.247c-7.524,0-12.738-5.803-12.738-14.385c0-9.002,5.55-14.889,13.112-14.889
	c7.784,0,12.793,5.93,12.793,14.343c0,9.716-5.928,14.931-13.121,14.931H278.807z M278.975,233.258
	c5.807,0,9.082-5.341,9.082-11.772c0-5.636-2.935-11.521-9.031-11.521c-6.1,0-9.132,5.676-9.132,11.814
	c0,5.971,3.283,11.479,9.048,11.479H278.975z"/>
<path fill="#3F3F3F" d="M314.414,207.856c1.857-0.378,4.549-0.63,7.029-0.63c3.904,0,6.475,0.76,8.246,2.359
	c1.381,1.218,2.217,3.153,2.217,5.383c0,3.699-2.385,6.18-5.332,7.188v0.126c2.146,0.755,3.443,2.779,4.156,5.718
	c0.938,3.955,1.604,6.688,2.15,7.784h-3.783c-0.463-0.802-1.092-3.242-1.855-6.772c-0.836-3.909-2.389-5.383-5.711-5.509h-3.455
	v12.281h-3.662V207.856z M318.076,220.729h3.744c3.906,0,6.393-2.145,6.393-5.382c0-3.661-2.646-5.257-6.514-5.257
	c-1.768,0-2.994,0.168-3.623,0.336V220.729z"/>
<path fill="#3F3F3F" d="M358.387,207.436v28.35h-3.699v-28.35H358.387z"/>
<path fill="#3F3F3F" d="M382.004,231.326c1.639,1.05,3.988,1.848,6.512,1.848c3.746,0,5.93-1.932,5.93-4.837
	c0-2.603-1.504-4.157-5.338-5.593c-4.631-1.68-7.48-4.119-7.48-8.069c0-4.417,3.652-7.701,9.17-7.701
	c2.859,0,4.992,0.677,6.217,1.386l-1.008,2.99c-0.885-0.546-2.775-1.344-5.346-1.344c-3.865,0-5.336,2.31-5.336,4.244
	c0,2.649,1.723,3.951,5.639,5.472c4.787,1.889,7.189,4.156,7.189,8.321c0,4.375-3.199,8.204-9.879,8.204
	c-2.742,0-5.725-0.84-7.24-1.852L382.004,231.326z"/>
<path fill="#3F3F3F" d="M426.27,210.551h-8.619v-3.115h20.984v3.115h-8.658v25.234h-3.707V210.551z"/>
<g>
	<defs>
		<circle id="SVGID_1_" cx="93.407" cy="154.946" r="86.928"/>
	</defs>
	<clipPath id="SVGID_2_">
		<use xlink:href="#SVGID_1_"  overflow="visible"/>
	</clipPath>
	<circle clip-path="url(#SVGID_2_)" fill="#3F3F3F" cx="93.407" cy="154.946" r="86.928"/>
	<g clip-path="url(#SVGID_2_)">
		<g>
			<g>
				<g>
					<path fill="#F3F2EF" d="M116.701,275.759c-6.378-9.069-9.51-20.462-12.043-31.14c-2.728-11.502-3.869-23.338-3.85-35.144
						c0.039-23.652,5.911-47.198,16.677-68.224c0.305-0.595-0.592-1.121-0.897-0.524c-10.66,20.819-16.246,43.691-16.797,67.053
						c-0.281,11.908,1.012,23.825,3.493,35.463c2.402,11.266,5.821,23.514,12.52,33.041
						C116.186,276.827,117.088,276.309,116.701,275.759L116.701,275.759z"/>
				</g>
			</g>
			<g>
				<g>
					<path fill="#F3F2EF" d="M116.59,140.933c-3.231-8.52-4.149-17.355-3.294-26.398c0.447-4.733,1.636-9.377,3.048-13.901
						c0.881-2.823,2.015-5.568,3.195-8.275c0.306-0.702,2.542-4.789,2.562-4.671c2.987,18.15,5.02,37.977-6.116,53.916
						c-0.385,0.551,0.517,1.069,0.897,0.524c11.717-16.77,9.036-37.607,5.906-56.63c-0.074-0.449-0.751-0.499-0.95-0.124
						c-9.141,17.244-13.363,37.083-6.25,55.837C115.824,141.83,116.829,141.561,116.59,140.933L116.59,140.933z"/>
				</g>
			</g>
			<g>
				<g>
					<path fill="#F3F2EF" d="M116.438,140.512c10.188-14.399,24.61-25.013,41.344-30.567c1.836-0.61,3.915-2.071,2.005,0.699
						c-1.552,2.252-3.198,4.437-4.887,6.588c-2.74,3.493-5.777,6.729-9.016,9.759c-7.622,7.132-17.204,12.126-27.618,13.349
						c-0.657,0.077-0.665,1.117,0,1.039c19.868-2.332,33.668-17.232,44.296-32.962c0.264-0.391-0.169-0.875-0.587-0.763
						c-18.833,5.029-35.179,16.424-46.436,32.334C115.153,140.536,116.055,141.055,116.438,140.512L116.438,140.512z"/>
				</g>
			</g>
			<g>
				<g>
					<path fill="#F3F2EF" d="M124.957,121.469c0.573-7.774,4.623-14.538,8.701-20.983c2.165-3.421,4.594-6.672,7.119-9.833
						c1.056-1.322,5.849-5.263,5.986-6.748c-1.234,13.33-6.332,26.839-13.768,37.912c-0.375,0.558,0.526,1.078,0.897,0.524
						c7.904-11.77,12.741-25.804,14.046-39.904c0.043-0.462-0.591-0.674-0.887-0.367c-9.924,10.267-22.039,24.542-23.133,39.399
						C123.869,122.138,124.908,122.133,124.957,121.469L124.957,121.469z"/>
				</g>
			</g>
			<g>
				<g>
					<path fill="#F3F2EF" d="M114.586,141.75c-8.771-3.372-14.583-15.043-17.209-23.417c-0.255-0.814-0.68-5.677-0.98-5.949
						c1.692,1.532,3.267,3.209,4.845,4.856c3.926,4.097,7.494,8.527,10.835,13.108c0.391,0.536,1.293,0.018,0.897-0.524
						c-4.901-6.719-10.505-14.603-17.384-19.399c-0.3-0.209-0.833,0.064-0.782,0.449c1.489,11.266,7.922,27.428,19.5,31.879
						C114.937,142.993,115.205,141.988,114.586,141.75L114.586,141.75z"/>
				</g>
			</g>
			<g>
				<g>
					<path fill="#F3F2EF" d="M116.983,143.194c13.775,10.722,30.735,2.845,44.082-4.375c0.346-0.187,0.33-0.707,0-0.897
						c-7.095-4.105-17.515-4.736-25.439-3.352c-0.659,0.115-0.379,1.117,0.276,1.002c4.819-0.841,9.8-0.519,14.618,0.154
						c2.137,0.298,4.232,0.807,6.296,1.429c0.999,0.315,1.965,0.711,2.9,1.187c-0.362-0.174-3.522,1.906-3.928,2.12
						c-11.634,6.129-26.498,11.005-38.069,1.998C117.196,142.053,116.455,142.783,116.983,143.194L116.983,143.194z"/>
				</g>
			</g>
			<g>
				<g>
					<path fill="#F3F2EF" d="M104.32,118.83c-2.819-6.774-0.216-17.237,3.028-23.467c0.438-0.842,3.111-3.94,3.106-3.957
						c0.25,0.804,0.616,1.648,0.952,2.416c1.183,2.705,2.507,5.356,3.525,8.129c0.229,0.624,1.233,0.354,1.002-0.276
						c-1.436-3.913-3.548-7.553-4.785-11.54c-0.114-0.368-0.586-0.515-0.869-0.229c-3.481,3.531-5.436,7.682-6.663,12.447
						c-1.297,5.036-2.337,11.854-0.298,16.754C103.571,119.715,104.577,119.448,104.32,118.83L104.32,118.83z"/>
				</g>
			</g>
			<g>
				<g>
					<path fill="#F3F2EF" d="M149.983,124.418c3.548-1.8,6.967-4.08,11.084-3.713c2.489,0.222,4.918,0.237,7.364,0.853
						c3.115,0.785-1.469,2.844-2.323,3.522c-3.476,2.76-6.686,5.503-10.953,6.954c-2.048,0.696-5.622,2.647-7.801,2.275
						c-0.655-0.112-0.936,0.89-0.276,1.002c2.649,0.453,6.352-1.594,8.823-2.435c5.995-2.039,10.047-7.091,15.527-10.042
						c0.355-0.191,0.319-0.698,0-0.897c-7.346-4.596-15.026-1.938-21.97,1.584C148.861,123.824,149.387,124.721,149.983,124.418
						L149.983,124.418z"/>
				</g>
			</g>
			<g>
				<g>
					<path fill="#F3F2EF" d="M124.899,100.012c-1.75-4.339,2.016-9.736,4.265-13.117c0.934-1.404,2.018-2.701,3.116-3.976
						c2.021-2.345,1.621,2.188,1.774,3.501c0.396,3.375,0.397,6.783,0.242,10.171c-0.031,0.67,1.008,0.667,1.039,0
						c0.25-5.416-0.134-10.737-1.138-16.062c-0.074-0.39-0.611-0.493-0.869-0.229c-3.703,3.789-6.633,8.035-8.851,12.853
						c-0.917,1.991-1.418,5.059-0.581,7.134C124.145,100.902,125.15,100.634,124.899,100.012L124.899,100.012z"/>
				</g>
			</g>
			<g>
				<g>
					<path fill="#F3F2EF" d="M143.236,104.362c2.029-3.671,4.144-7.032,7.75-9.348c1.949-1.251,3.98-2.368,6.02-3.461
						c3.192-1.712,1.377,1.029,0.771,2.901c-1.882,5.801-4.288,13.396-8.791,17.812c-0.479,0.47,0.256,1.204,0.734,0.734
						c5.819-5.705,8.39-15.852,10.633-23.306c0.141-0.467-0.374-0.776-0.763-0.587c-3.733,1.814-8.514,3.744-11.527,6.67
						c-2.397,2.327-4.116,5.152-5.724,8.062C142.015,104.424,142.912,104.948,143.236,104.362L143.236,104.362z"/>
				</g>
			</g>
			<g>
				<g>
					<path fill="#F3F2EF" d="M102.78,236.516c-9.288-16.707-28.066-26.198-44.93-33.539c-0.608-0.265-1.138,0.63-0.524,0.896
						c16.7,7.271,35.367,16.636,44.557,33.168C102.208,237.626,103.106,237.103,102.78,236.516L102.78,236.516z"/>
				</g>
			</g>
			<g>
				<g>
					<path fill="#F3F2EF" d="M57.018,203.351c-3.78,2.541-7.616,4.946-11.658,7.054c-2.459,1.282-5.031,2.295-7.651,3.188
						c-1.507,0.514-7.521,0.918-8.234,1.593c3.333-3.152,5.806-7.074,9.218-10.17c5.174-4.694,12.711-4.795,18.563-1.482
						c0.584,0.331,1.107-0.567,0.524-0.896c-5.042-2.854-10.504-3.171-15.854-0.949c-6.147,2.554-9.644,9.412-14.294,13.811
						c-0.319,0.302-0.086,0.913,0.368,0.887c11.074-0.644,20.532-6.077,29.542-12.137C58.095,203.876,57.576,202.975,57.018,203.351
						L57.018,203.351z"/>
				</g>
			</g>
			<g>
				<g>
					<path fill="#F3F2EF" d="M56.955,201.875c-8.293-4.439-8.723-16.948-9.867-25.108c-0.075-0.533,2.019,2.433,2.063,2.488
						c1.74,2.178,3.297,4.447,4.745,6.824c3.255,5.345,4.962,11.063,3.192,17.208c-0.186,0.645,0.817,0.919,1.002,0.275
						c3.209-11.137-4.726-20.881-11.411-28.986c-0.374-0.453-0.932,0.058-0.869,0.505c1.242,8.841,1.504,22.812,10.621,27.69
						C57.021,203.088,57.546,202.19,56.955,201.875L56.955,201.875z"/>
				</g>
			</g>
			<g>
				<g>
					<path fill="#F3F2EF" d="M48.051,199.593c-5.242,0.414-10.409,0.719-15.639-0.022c-5.229-0.74-9.667-3.754-14.54-5.56
						c0.75,0.277,4.611-1.374,5.507-1.604c3.602-0.924,7.239-1.211,10.935-1.077c6.064,0.22,11.936,3.194,15.56,8.034
						c0.396,0.529,1.3,0.012,0.897-0.525c-8.431-11.256-23.073-9.278-34.84-5.283c-0.474,0.16-0.517,0.86,0,1.002
						c5.651,1.546,10.397,4.862,16.204,6.015c5.196,1.032,10.687,0.473,15.916,0.06C48.715,200.579,48.72,199.54,48.051,199.593
						L48.051,199.593z"/>
				</g>
			</g>
			<g>
				<g>
					<path fill="#F3F2EF" d="M44.388,193.156c-4.232-2.303-6.913-6.648-9.739-10.404c-2.8-3.722-5.361-7.564-7.396-11.761
						c-0.237,0.237-0.474,0.475-0.711,0.711c6.652,3.942,17.089,6.219,20.28,14.141c0.247,0.614,1.252,0.347,1.002-0.275
						c-3.354-8.33-13.764-10.619-20.758-14.762c-0.475-0.281-0.929,0.261-0.711,0.711c2.493,5.141,5.821,9.693,9.262,14.231
						c2.384,3.145,4.712,6.384,8.245,8.305C44.453,194.373,44.977,193.476,44.388,193.156L44.388,193.156z"/>
				</g>
			</g>
			<g>
				<g>
					<path fill="#F3F2EF" d="M33.108,199.521c-5.814,1.096-12.858,4.925-15.279,10.699c-0.404,0.963,0.183,1.614,1.2,1.469
						c5.042-0.722,10.064-1.563,15.067-2.52c0.658-0.126,0.378-1.127-0.276-1.002c-2.694,0.515-5.393,0.999-8.098,1.451
						c-1.159,0.194-2.32,0.374-3.482,0.555c-1.144,0.178-3.802,0.876-2.454-1.132c3.086-4.594,8.248-7.511,13.598-8.519
						C34.043,200.398,33.763,199.397,33.108,199.521L33.108,199.521z"/>
				</g>
			</g>
			<g>
				<g>
					<path fill="#F3F2EF" d="M28.03,190.823c-3.89-2.593-7.111-5.786-9.737-9.655c-0.149,0.261-0.299,0.521-0.449,0.782
						c3.09-0.22,6.174-0.305,9.271-0.257c1.519,0.023,4.466-0.771,5.688,0.421c0.48,0.469,1.215-0.266,0.735-0.734
						c-1.216-1.188-3.307-0.876-4.849-0.794c-3.613,0.193-7.228,0.068-10.846,0.325c-0.363,0.025-0.686,0.432-0.449,0.782
						c2.719,4.006,6.081,7.342,10.11,10.026C28.065,192.093,28.584,191.192,28.03,190.823L28.03,190.823z"/>
				</g>
			</g>
			<g>
				<g>
					<path fill="#F3F2EF" d="M40.38,212.78c-2.111,3.032-3.642,6.2-4.72,9.729c-0.137,0.448,0.376,0.802,0.763,0.586
						c8.518-4.736,17.486-10.438,18.818-20.938c0.084-0.664-0.956-0.655-1.039,0c-1.281,10.09-10.183,15.525-18.304,20.041
						c0.254,0.195,0.509,0.391,0.763,0.586c1.05-3.438,2.564-6.535,4.615-9.479C41.662,212.754,40.76,212.235,40.38,212.78
						L40.38,212.78z"/>
				</g>
			</g>
			<g>
				<g>
					<path fill="#F3F2EF" d="M53.186,182.798c-2.151-2.517-1.605-5.883-1.349-8.843c0.329-3.799,0.2-3.935,2.275-0.581
						c3.359,5.43,6.371,14.429,3.356,20.574c-0.294,0.6,0.602,1.127,0.897,0.525c3.995-8.144-1.171-19.176-6.173-25.709
						c-0.316-0.412-0.921-0.279-0.968,0.263c-0.391,4.498-2.06,10.66,1.226,14.505C52.887,184.043,53.619,183.304,53.186,182.798
						L53.186,182.798z"/>
				</g>
			</g>
			<g>
				<g>
					<path fill="#F3F2EF" d="M78.635,212.839c-6.192-5.865-4.031-15.004-2.572-22.406c0.193-0.981,4.847,7.077,5.038,7.541
						c1.746,4.234,1.522,8.948-0.389,13.063c-0.28,0.604,0.615,1.133,0.897,0.525c3.896-8.388,0.235-16.601-5.349-23.197
						c-0.248-0.293-0.791-0.138-0.869,0.229c-1.73,8.163-4.338,18.495,2.507,24.979C78.386,214.034,79.122,213.301,78.635,212.839
						L78.635,212.839z"/>
				</g>
			</g>
			<g>
				<g>
					<path fill="#F3F2EF" d="M78.349,215.134c-7.715,2.716-13.983,7.866-18.123,14.922c-0.239,0.408,0.151,0.862,0.587,0.764
						c5.77-1.309,26.369-5.735,20.084-15.818c-0.354-0.566-1.253-0.046-0.897,0.525c5.547,8.899-14.006,13.053-19.463,14.291
						c0.196,0.254,0.391,0.509,0.587,0.764c4.001-6.82,10.042-11.819,17.502-14.445C79.253,215.915,78.983,214.91,78.349,215.134
						L78.349,215.134z"/>
				</g>
			</g>
			<g>
				<g>
					<path fill="#F3F2EF" d="M102.588,200.666c4.788-15.467,15.47-27.762,29.275-35.987c0.37-0.221,2.991-2.455,2.132-1.239
						c-1.534,2.172-3.069,4.344-4.604,6.517c-2.685,3.8-5.371,7.601-8.057,11.4c-5.155,7.294-10.198,16.147-19.386,18.671
						c-0.646,0.177-0.371,1.18,0.276,1.002c6.538-1.795,10.875-6.586,14.826-11.856c6.566-8.759,12.677-17.896,18.993-26.838
						c0.322-0.457-0.285-0.931-0.711-0.711c-15.89,8.157-28.417,21.547-33.747,38.767
						C101.387,201.032,102.391,201.305,102.588,200.666L102.588,200.666z"/>
				</g>
			</g>
			<g>
				<g>
					<g>
						<path fill="#F3F2EF" d="M87.387,170.74c-3.136-4.94-4.33-10.246-4.475-16.05c-0.089-3.592,0.498-7.196,1.142-10.713
							c0.21-1.15,2.28-6.894,1.929-7.566c2.815,5.397,5.156,11.116,6.369,17.093c1.33,6.556-2.104,12.182-5.863,17.236
							c-0.4,0.539,0.502,1.056,0.897,0.525c3.575-4.807,6.775-10.056,6.234-16.224c-0.63-7.18-4.214-14.313-7.501-20.615
							c-0.208-0.4-0.844-0.302-0.95,0.124c-3.038,12.183-5.855,25.408,1.319,36.714C86.848,171.829,87.748,171.309,87.387,170.74
							L87.387,170.74z"/>
					</g>
				</g>
				<g>
					<g>
						<path fill="#F3F2EF" d="M86.999,170.511c-8.745,0.99-15.774-3.699-21.37-9.972c-0.523-0.587-3.932-4.1-2.543-4.197
							c2.748-0.192,5.51,0.254,8.181,0.844c4.474,0.987,10.054,3.417,12.035,7.813c0.275,0.609,1.17,0.081,0.897-0.525
							c-3.51-7.789-15.278-9.579-22.787-9.054c-0.354,0.024-0.698,0.437-0.449,0.782c6.229,8.622,14.578,16.645,26.036,15.348
							C87.657,171.476,87.664,170.436,86.999,170.511L86.999,170.511z"/>
					</g>
				</g>
				<g>
					<g>
						<path fill="#F3F2EF" d="M77.018,157.243c-5.32-4.192-6.949-12.926-7.904-19.28c-0.254,0.196-0.509,0.391-0.763,0.587
							c2.639,1.918,5.141,3.963,7.55,6.159c1.043,0.952,2.034,1.96,3.023,2.968c0.787,0.802,2.867,2.344,3.181,3.467
							c0.181,0.645,1.183,0.37,1.002-0.276c-0.695-2.482-3.651-4.161-5.445-5.922c-2.721-2.671-5.707-5.053-8.787-7.292
							c-0.416-0.303-0.822,0.195-0.763,0.587c0.968,6.447,2.722,15.445,8.17,19.738C76.803,158.388,77.543,157.658,77.018,157.243
							L77.018,157.243z"/>
					</g>
				</g>
				<g>
					<g>
						<path fill="#F3F2EF" d="M77.92,143.379c-0.82-3.781,0.634-7.945,1.394-11.659c-0.316,0.042-0.633,0.083-0.95,0.124
							c2.346,3.891,4.599,7.878,3.996,12.584c-0.085,0.664,0.955,0.655,1.039,0c0.625-4.879-1.702-9.068-4.138-13.109
							c-0.22-0.364-0.856-0.333-0.95,0.124c-0.806,3.938-2.267,8.187-1.394,12.212C77.061,144.311,78.062,144.033,77.92,143.379
							L77.92,143.379z"/>
					</g>
				</g>
				<g>
					<g>
						<path fill="#F3F2EF" d="M71.644,149.648c-4.545-1.306-9.068-2.505-13.833-2.396c-0.458,0.01-0.682,0.556-0.368,0.887
							c2.822,2.968,5.529,6.713,9.462,8.226c0.626,0.241,0.895-0.764,0.276-1.002c-3.68-1.415-6.355-5.174-9.003-7.958
							c-0.123,0.295-0.245,0.591-0.368,0.887c4.67-0.106,9.105,1.081,13.556,2.359C72.013,150.836,72.287,149.833,71.644,149.648
							L71.644,149.648z"/>
					</g>
				</g>
			</g>
		</g>
	</g>
</g>
</svg>
