<?xml version="1.0" encoding="utf-8"?>
<!-- Generator: Adobe Illustrator 16.0.0, SVG Export Plug-In . SVG Version: 6.00 Build 0)  -->
<!DOCTYPE svg PUBLIC "-//W3C//DTD SVG 1.1//EN" "http://www.w3.org/Graphics/SVG/1.1/DTD/svg11.dtd">
<svg version="1.1" id="Layer_1" xmlns="http://www.w3.org/2000/svg" xmlns:xlink="http://www.w3.org/1999/xlink" x="0px" y="0px"
	 width="612px" height="309.89px" viewBox="0 0 612 309.89" enable-background="new 0 0 612 309.89" xml:space="preserve">
<g>
	<g>
		<g>
			<path fill="#3F3F3F" d="M91.475,171.479L50.38,99.372l10.27-5.854l43.794,23.373c10.061,5.466,18.604,10.514,26.19,16.112
				l0.262-0.289c-6.347-9.14-11.558-17.792-17.9-28.919L95.74,73.522l8.772-5.001l41.096,72.106l-9.414,5.367l-43.747-23.544
				c-9.6-5.157-19.108-10.651-27.091-16.446l-0.261,0.286c5.72,8.791,10.764,17.397,17.593,29.379l17.56,30.812L91.475,171.479z"/>
			<path fill="#3F3F3F" d="M177.805,100.815l-0.936,27.457l-10.63,3.111l3.746-87.508l12.398-3.631l50.457,71.642l-10.981,3.218
				l-15.83-22.55L177.805,100.815z M201.555,85.149l-14.619-20.595c-3.173-4.712-5.737-9.089-8.269-13.35l-0.352,0.104
				c0.283,4.914,0.436,10.256,0.319,15.547l-1.056,25.31L201.555,85.149z"/>
			<path fill="#3F3F3F" d="M255.967,35.252l-25.114,2.488l-0.896-9.066l61.129-6.054l0.899,9.066l-25.237,2.499l7.275,73.506
				l-10.782,1.066L255.967,35.252z"/>
			<path fill="#3F3F3F" d="M339.67,24.184l-5.577,48.915c-2.09,18.339,5.207,27.101,16.218,28.354
				c12.104,1.379,20.975-5.783,23.035-23.883l5.577-48.911l10.756,1.226l-5.489,48.178c-2.88,25.313-17.387,34.067-35.235,32.029
				c-16.879-1.922-28.512-12.91-25.581-38.589l5.541-48.545L339.67,24.184z"/>
			<path fill="#3F3F3F" d="M435.388,42.251c5.483,0.729,13.165,2.615,20.026,4.993c10.814,3.754,17.183,8.306,20.533,14.42
				c2.669,4.703,3.134,10.857,1.001,17.022c-3.554,10.23-12.563,14.793-21.673,14.756l-0.116,0.353
				c5.201,4.148,6.87,10.98,6.021,19.804c-1.234,11.819-1.995,20.022-1.539,23.569l-10.458-3.63
				c-0.515-2.651,0.087-10.002,1.378-20.494c1.421-11.623-1.466-17.186-10.531-20.722l-9.53-3.308l-11.778,33.951l-10.119-3.51
				L435.388,42.251z M433.162,81.342l10.35,3.589c10.808,3.755,19.729,0.204,22.833-8.75c3.511-10.114-2.278-17.077-12.977-20.787
				c-4.881-1.694-8.421-2.401-10.321-2.539L433.162,81.342z"/>
			<path fill="#3F3F3F" d="M537.569,136.225l-27.679-16.297l-15.173,25.773l30.971,18.234l-4.555,7.745l-40.313-23.731
				l42.082-71.493l38.717,22.793l-4.555,7.742l-29.382-17.299l-13.296,22.598l27.678,16.297L537.569,136.225z"/>
		</g>
	</g>
	<g>
		<g>
			<path fill="#3F3F3F" d="M175.226,210.583l23.405,9.995l-2.009,4.71l-17.733-7.575l-6.169,14.44l16.381,6.999l-1.983,4.643
				l-16.381-6.992l-8.399,19.663l-5.672-2.423L175.226,210.583z"/>
			<path fill="#3F3F3F" d="M214.429,225.901l5.955,1.635l-11.17,40.665l19.484,5.353l-1.355,4.933l-25.44-6.984L214.429,225.901z"/>
			<path fill="#3F3F3F" d="M264.166,285.317c-12.475-1.485-19.975-12.126-18.288-26.342c1.77-14.919,12.127-23.587,24.674-22.094
				c12.893,1.524,20.022,12.338,18.365,26.278c-1.911,16.102-12.762,23.58-24.682,22.157H264.166z M265.032,280.4
				c9.618,1.14,16.105-7.063,17.371-17.726c1.11-9.343-2.61-19.686-12.718-20.882s-16.243,7.616-17.451,17.791
				c-1.171,9.895,3.181,19.671,12.729,20.803L265.032,280.4z"/>
			<path fill="#3F3F3F" d="M306.995,240.69c3.058-0.769,7.529-1.393,11.662-1.581c6.528-0.298,10.865,0.776,13.933,3.308
				c2.401,1.929,3.954,5.091,4.128,8.812c0.275,6.174-3.539,10.488-8.37,12.396l0.015,0.21c3.627,1.102,5.962,4.366,7.37,9.226
				c1.841,6.527,3.177,11.039,4.162,12.816l-6.31,0.283c-0.827-1.291-2.067-5.316-3.598-11.155c-1.697-6.456-4.41-8.791-9.952-8.755
				l-5.755,0.262l0.926,20.482l-6.104,0.275L306.995,240.69z M314.07,261.876l6.241-0.274c6.527-0.298,10.502-4.063,10.255-9.466
				c-0.274-6.101-4.814-8.565-11.271-8.276c-2.945,0.131-4.965,0.508-6.006,0.834L314.07,261.876z"/>
			<path fill="#3F3F3F" d="M359.079,235.287l7.565,46.665l-6.093,0.987l-7.565-46.666L359.079,235.287z"/>
			<path fill="#3F3F3F" d="M387.953,270.21c3.112,0.951,7.254,1.168,11.308,0.036c6.013-1.683,8.653-5.772,7.348-10.437
				c-1.175-4.185-4.309-6.006-11.098-6.579c-8.182-0.623-13.875-3.249-15.651-9.603c-1.987-7.093,2.407-13.998,11.256-16.482
				c4.6-1.287,8.342-1.172,10.619-0.573l-0.276,5.247c-1.66-0.479-5.062-0.913-9.182,0.248c-6.209,1.74-7.536,6.12-6.666,9.226
				c1.196,4.249,4.548,5.569,11.511,6.237c8.551,0.885,13.425,3.452,15.297,10.14c1.965,7.028-1.443,14.608-12.178,17.624
				c-4.395,1.227-9.567,1.22-12.454,0.276L387.953,270.21z"/>
			<path fill="#3F3F3F" d="M428.772,220.052l-13.17,5.789l-2.09-4.759L445.578,207l2.09,4.758l-13.236,5.813l16.928,38.554
				l-5.65,2.488L428.772,220.052z"/>
		</g>
	</g>
</g>
</svg>
