<svg width="154" height="48" viewBox="0 0 154 48" fill="none" xmlns="http://www.w3.org/2000/svg">
<g clip-path="url(#clip0_11_127)">
<path d="M61.709 25.6623L59.0319 18.6559C58.9227 18.3693 58.5052 18.3693 58.3957 18.6559L55.7191 25.6628C55.7001 25.7126 55.6937 25.7661 55.7007 25.8188C55.7076 25.8715 55.7275 25.9218 55.7588 25.9654C55.79 26.0089 55.8317 26.0445 55.8802 26.0691C55.9287 26.0937 55.9826 26.1065 56.0373 26.1065H61.3908C61.4455 26.1065 61.4994 26.0937 61.5479 26.0691C61.5964 26.0444 61.638 26.0088 61.6693 25.9652C61.7005 25.9216 61.7204 25.8713 61.7273 25.8186C61.7342 25.7659 61.7278 25.7123 61.7088 25.6625L61.709 25.6623ZM62.9457 29.6005H54.4826C54.4134 29.6006 54.3458 29.6211 54.2889 29.6595C54.2321 29.6979 54.1887 29.7523 54.1646 29.8153L52.4985 34.1749C52.4744 34.2379 52.431 34.2923 52.3741 34.3307C52.3173 34.3691 52.2497 34.3896 52.1805 34.3896H48.5123C48.4569 34.3896 48.4023 34.3764 48.3533 34.3512C48.3043 34.3259 48.2625 34.2894 48.2314 34.2448C48.2003 34.2002 48.181 34.1489 48.1751 34.0954C48.1692 34.0418 48.1769 33.9877 48.1975 33.9377L56.6427 13.5117C56.668 13.4507 56.7115 13.3984 56.7677 13.3616C56.8238 13.3248 56.89 13.3052 56.9578 13.3053H60.4701C60.6085 13.3053 60.7331 13.387 60.7849 13.5117L69.2299 33.9375C69.2506 33.9875 69.2584 34.0417 69.2525 34.0953C69.2467 34.1489 69.2273 34.2002 69.1963 34.2449C69.1652 34.2896 69.1233 34.3261 69.0743 34.3514C69.0252 34.3767 68.9706 34.3899 68.9151 34.3899H65.2476C65.1783 34.3898 65.1107 34.3692 65.0539 34.3308C64.997 34.2924 64.9537 34.238 64.9296 34.1749L63.2632 29.8153C63.2391 29.7523 63.1957 29.6979 63.1389 29.6595C63.0821 29.6211 63.0145 29.6006 62.9452 29.6005H62.9457ZM70.9485 20.4738H74.0859C74.1758 20.4738 74.2621 20.5085 74.3258 20.5703C74.3894 20.632 74.4251 20.7158 74.4251 20.8032V34.0603C74.4251 34.1476 74.3894 34.2314 74.3258 34.2932C74.2621 34.3549 74.1758 34.3896 74.0859 34.3896H70.9485C70.8585 34.3896 70.7723 34.3549 70.7086 34.2932C70.645 34.2314 70.6093 34.1476 70.6093 34.0603V20.8029C70.6093 20.7156 70.645 20.6318 70.7086 20.57C70.7723 20.5083 70.8585 20.4736 70.9485 20.4736V20.4738ZM85.8672 23.6986C85.8672 23.7859 85.8315 23.8697 85.7679 23.9315C85.7042 23.9933 85.618 24.028 85.528 24.028H85.433C83.8817 24.028 82.7439 24.3894 82.0202 25.1123C81.296 25.8351 80.9346 27.0301 80.9346 28.6967V34.0603C80.9346 34.1476 80.8988 34.2314 80.8352 34.2932C80.7716 34.3549 80.6853 34.3896 80.5953 34.3896H77.4887C77.3988 34.3896 77.3125 34.3549 77.2489 34.2932C77.1852 34.2314 77.1495 34.1476 77.1495 34.0603V20.8029C77.1495 20.7156 77.1852 20.6318 77.2489 20.57C77.3125 20.5083 77.3988 20.4736 77.4887 20.4736H80.5641C80.6541 20.4736 80.7404 20.5083 80.804 20.57C80.8676 20.6318 80.9034 20.7156 80.9034 20.8029V23.4252H80.9656C81.3378 22.3409 81.9272 21.508 82.7342 20.9253C83.5404 20.3431 84.5333 20.0518 85.7121 20.0518H85.8672V23.6984V23.6986ZM94.4456 23.5761C94.3557 23.5761 94.2694 23.6108 94.2058 23.6725C94.1421 23.7343 94.1064 23.8181 94.1064 23.9054V29.4196C94.1064 29.982 94.2195 30.3836 94.4475 30.6245C94.6748 30.8653 95.0678 30.9859 95.6262 30.9859H95.9386C96.0285 30.9859 96.1148 31.0206 96.1784 31.0824C96.2421 31.1441 96.2778 31.2279 96.2778 31.3153V34.0901C96.2778 34.1775 96.2421 34.2613 96.1784 34.323C96.1148 34.3848 96.0285 34.4195 95.9386 34.4195H94.6024C93.2167 34.4195 92.1517 34.0732 91.4071 33.3804C90.6624 32.6877 90.2901 31.6589 90.2901 30.2931V23.9054C90.2901 23.8181 90.2544 23.7343 90.1907 23.6725C90.1271 23.6108 90.0408 23.5761 89.9509 23.5761H87.9925C87.9025 23.5761 87.8162 23.5414 87.7526 23.4796C87.689 23.4178 87.6532 23.334 87.6532 23.2467V20.8029C87.6532 20.7156 87.689 20.6318 87.7526 20.57C87.8162 20.5083 87.9025 20.4736 87.9925 20.4736H89.9511C90.0411 20.4736 90.1273 20.4389 90.191 20.3771C90.2546 20.3153 90.2903 20.2316 90.2903 20.1442V15.2306C90.2903 15.1432 90.3261 15.0595 90.3897 14.9977C90.4533 14.9359 90.5396 14.9012 90.6296 14.9012H93.7669C93.8569 14.9012 93.9432 14.9359 94.0068 14.9977C94.0704 15.0595 94.1062 15.1432 94.1062 15.2306V20.1442C94.1062 20.2316 94.1419 20.3153 94.2055 20.3771C94.2692 20.4389 94.3554 20.4736 94.4454 20.4736H96.7141C96.8041 20.4736 96.8903 20.5083 96.954 20.57C97.0176 20.6318 97.0533 20.7156 97.0533 20.8029V23.2469C97.0533 23.3343 97.0176 23.418 96.954 23.4798C96.8903 23.5416 96.8041 23.5763 96.7141 23.5763H94.4456V23.5761ZM108.812 30.263C109.525 29.5402 109.882 28.5964 109.882 27.4315C109.882 26.2673 109.525 25.3231 108.812 24.6002C108.098 23.8773 107.162 23.5159 106.004 23.5159C104.846 23.5159 103.91 23.8773 103.196 24.6002C102.483 25.3231 102.126 26.2673 102.126 27.4315C102.126 28.5964 102.483 29.5402 103.196 30.263C103.91 30.9859 104.846 31.3473 106.004 31.3473C107.162 31.3473 108.098 30.9859 108.812 30.263ZM101.568 33.9678C100.513 33.3857 99.6802 32.537 99.0705 31.4226C98.4601 30.3083 98.1552 28.978 98.1552 27.4315C98.1552 25.8856 98.4601 24.555 99.0705 23.4406C99.6802 22.3262 100.513 21.4782 101.568 20.8954C102.623 20.3131 103.781 20.0219 105.042 20.0219C106.159 20.0219 107.116 20.2327 107.912 20.6543C108.708 21.0759 109.344 21.6685 109.82 22.4316H109.882V20.8029C109.882 20.7156 109.918 20.6318 109.981 20.57C110.045 20.5083 110.131 20.4736 110.221 20.4736H113.328C113.418 20.4736 113.504 20.5083 113.568 20.57C113.631 20.6318 113.667 20.7156 113.667 20.8029V34.0601C113.667 34.1474 113.631 34.2312 113.568 34.293C113.504 34.3547 113.418 34.3894 113.328 34.3894H110.221C110.131 34.3894 110.045 34.3547 109.981 34.293C109.918 34.2312 109.882 34.1474 109.882 34.0601V32.4316H109.82C109.344 33.1951 108.708 33.7871 107.912 34.2087C107.116 34.6303 106.159 34.8411 105.042 34.8411C103.781 34.8411 102.623 34.5499 101.568 33.9678ZM126.586 30.263C127.3 29.5402 127.656 28.5964 127.656 27.4315C127.656 26.2673 127.3 25.3231 126.586 24.6002C125.873 23.8773 124.937 23.5159 123.778 23.5159C122.62 23.5159 121.684 23.8773 120.971 24.6002C120.258 25.3231 119.9 26.2673 119.9 27.4315C119.9 28.5964 120.258 29.5402 120.971 30.263C121.684 30.9859 122.62 31.3473 123.778 31.3473C124.937 31.3473 125.873 30.9859 126.586 30.263ZM121.871 34.2087C121.074 33.7871 120.438 33.1951 119.963 32.4316H119.9V34.0601C119.9 34.1474 119.865 34.2312 119.801 34.293C119.737 34.3547 119.651 34.3894 119.561 34.3894H116.424C116.334 34.3894 116.248 34.3547 116.184 34.293C116.12 34.2312 116.085 34.1474 116.085 34.0601V13.634C116.085 13.5466 116.12 13.4629 116.184 13.4011C116.248 13.3393 116.334 13.3046 116.424 13.3046H119.561C119.651 13.3046 119.737 13.3393 119.801 13.4011C119.865 13.4629 119.9 13.5466 119.9 13.634V22.4314H119.963C120.438 21.6683 121.074 21.0759 121.871 20.6543C122.667 20.2325 123.623 20.0217 124.74 20.0217C126.002 20.0217 127.16 20.3128 128.215 20.8952C129.27 21.4779 130.102 22.326 130.712 23.4401C131.322 24.5552 131.628 25.8859 131.628 27.4317C131.628 28.9782 131.322 30.3083 130.712 31.4229C130.102 32.5372 129.27 33.3859 128.215 33.9678C127.16 34.5502 126.002 34.8415 124.741 34.8415C123.624 34.8415 122.667 34.6307 121.871 34.2089L121.871 34.2087ZM136.914 34.3896H133.776C133.686 34.3896 133.6 34.3549 133.536 34.2932C133.473 34.2314 133.437 34.1476 133.437 34.0603V13.6347C133.437 13.5473 133.473 13.4635 133.536 13.4018C133.6 13.34 133.686 13.3053 133.776 13.3053H136.914C137.004 13.3053 137.09 13.34 137.154 13.4018C137.217 13.4635 137.253 13.5473 137.253 13.6347V34.0603C137.253 34.1476 137.217 34.2314 137.154 34.2932C137.09 34.3549 137.004 34.3896 136.914 34.3896ZM144.314 23.6968C143.794 24.0908 143.443 24.6595 143.261 25.4034C143.211 25.6085 143.376 25.8053 143.593 25.8053H149.564C149.771 25.8053 149.934 25.6252 149.9 25.4267C149.781 24.7229 149.47 24.1619 148.968 23.7421C148.378 23.2502 147.608 23.0043 146.656 23.0043C145.705 23.0043 144.924 23.235 144.314 23.6968ZM151.962 21.9648C153.182 23.2603 153.792 25.0927 153.792 27.4618V27.8553C153.792 27.9426 153.756 28.0264 153.693 28.0882C153.629 28.15 153.543 28.1847 153.453 28.1847H143.478C143.428 28.1848 143.379 28.1954 143.334 28.2158C143.289 28.2362 143.249 28.2659 143.217 28.3028C143.185 28.3398 143.162 28.383 143.149 28.4296C143.136 28.4762 143.134 28.5249 143.142 28.5725C143.301 29.4525 143.702 30.1517 144.345 30.6697C145.079 31.2626 146.005 31.5583 147.122 31.5583C148.564 31.5583 149.898 31.012 151.125 29.9192C151.275 29.7856 151.513 29.814 151.629 29.9762L153.155 32.1018C153.202 32.1679 153.223 32.2488 153.214 32.329C153.204 32.4093 153.165 32.4833 153.103 32.537C152.354 33.1733 151.522 33.7102 150.627 34.1336C149.635 34.6053 148.466 34.8415 147.122 34.8415C145.571 34.8415 144.216 34.535 143.058 33.9228C141.899 33.3106 141 32.4472 140.359 31.3324C139.717 30.218 139.397 28.928 139.397 27.4618C139.397 25.9963 139.707 24.7012 140.328 23.5763C140.948 22.452 141.817 21.5785 142.934 20.9558C144.051 20.3337 145.353 20.0221 146.843 20.0221C149.034 20.0221 150.741 20.6699 151.962 21.9648ZM74.8349 15.5727C74.8349 16.8151 73.7975 17.8223 72.5176 17.8223C71.2376 17.8223 70.2001 16.8151 70.2001 15.5725C70.2001 14.3299 71.2378 13.3226 72.5176 13.3226C73.7975 13.3226 74.8349 14.3299 74.8349 15.5725" fill="#333333"/>
<path d="M17.8671 7.36428L2.94929 13.3574C2.11972 13.6907 2.12831 14.8349 2.96309 15.1562L17.9431 20.9238C19.2593 21.4306 20.725 21.4306 22.0412 20.9238L37.0214 15.156C37.856 14.8349 37.865 13.6909 37.035 13.3576L22.1176 7.36406C20.7567 6.81729 19.2278 6.81729 17.8669 7.36406" fill="#FCB400"/>
<path d="M21.3211 24.0731V38.4814C21.3211 39.1665 22.0328 39.636 22.689 39.3835L39.3813 33.0929C39.5675 33.0212 39.7272 32.8969 39.8397 32.7361C39.9522 32.5752 40.0123 32.3853 40.0123 32.1908V17.7827C40.0123 17.0974 39.3005 16.6281 38.6444 16.8807L21.9521 23.1713C21.766 23.243 21.6063 23.3673 21.4938 23.5281C21.3813 23.689 21.3211 23.8789 21.3211 24.0733" fill="#18BFFF"/>
<path d="M17.4233 24.8165L12.4694 27.1388L11.9664 27.3749L1.50897 32.2397C0.846308 32.5502 0 32.0812 0 31.3662V17.843C0 17.5843 0.136603 17.361 0.319797 17.193C0.394951 17.1204 0.480214 17.0583 0.573101 17.0086C0.822787 16.863 1.17922 16.8241 1.48228 16.9405L17.34 23.041C18.1461 23.3514 18.2094 24.448 17.4233 24.8167" fill="#F82B60"/>
<path d="M17.4233 24.8165L12.4694 27.1388L0.319824 17.1928C0.394993 17.1202 0.480255 17.0582 0.573129 17.0086C0.822815 16.863 1.17925 16.8241 1.48231 16.9405L17.3401 23.041C18.1461 23.3514 18.2095 24.448 17.4233 24.8167" fill="black" fill-opacity="0.25"/>
</g>
<defs>
<clipPath id="clip0_11_127">
<rect width="154" height="48" fill="white"/>
</clipPath>
</defs>
</svg>
