<?xml version="1.0" encoding="utf-8"?>
<!-- Generator: Adobe Illustrator 16.0.0, SVG Export Plug-In . SVG Version: 6.00 Build 0)  -->
<!DOCTYPE svg PUBLIC "-//W3C//DTD SVG 1.1//EN" "http://www.w3.org/Graphics/SVG/1.1/DTD/svg11.dtd">
<svg version="1.1" id="Layer_1" xmlns="http://www.w3.org/2000/svg" xmlns:xlink="http://www.w3.org/1999/xlink" x="0px" y="0px"
	 width="612px" height="309.89px" viewBox="0 0 612 309.89" enable-background="new 0 0 612 309.89" xml:space="preserve">
<g>
	<g>
		<g>
			<g>
				<g>
					<path fill="#3F3F3F" d="M123.138,189.721c-5.324,22.924-15.97,44.141-31.194,62.087c-0.422,0.498,0.295,1.223,0.721,0.721
						c15.339-18.081,26.093-39.44,31.457-62.536C124.27,189.353,123.287,189.081,123.138,189.721L123.138,189.721z"/>
				</g>
			</g>
			<g>
				<g>
					<path fill="#3F3F3F" d="M123.928,191.631c-1.944-5.417-6.882-8.319-10.703-12.324c-6.581-6.897-6.321-17.676-3.641-26.133
						c2.716-8.568,8.659-15.605,13.868-22.735c3.944-5.398,6.534-11.859,3.961-18.39c-0.238-0.604-1.225-0.342-0.983,0.271
						c3.743,9.498-3.801,17.403-9.013,24.517c-4.583,6.254-8.381,13.058-10.063,20.677c-1.305,5.912-0.554,12.104,1.872,17.604
						c3.04,6.896,11.171,9.684,13.719,16.786C123.166,192.516,124.15,192.251,123.928,191.631L123.928,191.631z"/>
				</g>
			</g>
			<g>
				<g>
					<path fill="#3F3F3F" d="M125.562,111.657c18.149,22.538,18.192,54.479,0.121,77.088c-0.406,0.508,0.311,1.234,0.721,0.721
						c18.446-23.078,18.407-55.522-0.121-78.529C125.871,110.424,125.154,111.15,125.562,111.657L125.562,111.657z"/>
				</g>
			</g>
			<g>
				<g>
					<path fill="#3F3F3F" d="M134.457,123.642c2.36-3.907,5.262-6.875,9.098-9.346c3.185-2.052,2.431-0.392,1.806,2.197
						c-0.399,1.654-0.499,3.382-0.593,5.071c-0.481,8.61,4.773,15.919,6.681,24.021c4.71,19.997-8.684,39.689-27.9,44.952
						c-0.633,0.173-0.364,1.156,0.271,0.982c13.648-3.737,24.068-13.926,28.076-27.49c2.275-7.702,1.667-16.055-0.848-23.596
						c-1.405-4.211-3.548-8.088-4.649-12.418c-1.351-5.312-0.495-10.959,1.408-16c0.128-0.339-0.278-0.774-0.627-0.627
						c-5.812,2.45-10.337,6.335-13.602,11.739C133.236,123.692,134.118,124.204,134.457,123.642L134.457,123.642z"/>
				</g>
			</g>
			<g>
				<g>
					<path fill="#3F3F3F" d="M117.606,214.494c8.054-4.022,16.543-6.502,25.375-8.118c4.684-0.856,9.429-1.354,14.17-1.767
						c1.609-0.14,3.22-0.251,4.834-0.316c1.893-0.444,3.148,0.254,3.765,2.094c-0.941,0.676-1.885,1.348-2.831,2.017
						c-14.273,10.129-31.479,19.648-49.352,13.393c-0.622-0.218-0.887,0.767-0.271,0.982c20.069,7.025,38.697-5.271,54.377-16.522
						c0.273-0.196,0.338-0.542,0.103-0.801c-1.915-2.109-4.31-2.242-7.04-2.131c-4.836,0.198-9.681,0.82-14.47,1.496
						c-10.13,1.429-20.013,4.218-29.176,8.793C116.503,213.907,117.02,214.786,117.606,214.494L117.606,214.494z"/>
				</g>
			</g>
			<g>
				<g>
					<path fill="#3F3F3F" d="M92.289,252.475c-0.806-9.664-1.636-19.324-2.763-28.957c-1.205-10.289-3.371-20.485-3.819-30.849
						c-0.454-10.475,0.878-21.219,2.315-31.577c1.328-9.573,3.561-18.988,7.083-27.995c0.24-0.613-0.747-0.876-0.983-0.271
						c-6.865,17.554-9.147,37.247-9.476,55.999c-0.182,10.375,2.027,20.607,3.382,30.844c1.442,10.895,2.328,21.857,3.242,32.806
						C91.323,253.125,92.343,253.13,92.289,252.475L92.289,252.475z"/>
				</g>
			</g>
			<g>
				<g>
					<path fill="#3F3F3F" d="M94.167,133.122c-5.358-4.157-10.666-8.485-12.993-15.092c-2.604-7.389,0.597-16.813,4.088-23.367
						C91.39,83.16,103.247,74.813,103,60.628c-0.334,0.045-0.667,0.09-1.001,0.136c4.576,12.979,7.654,27.344,4.385,40.966
						c-2.625,10.944-7.374,21.781-13.016,31.495c-0.331,0.57,0.55,1.083,0.88,0.515c5.72-9.847,10.263-20.716,13.119-31.739
						c3.532-13.632,0.189-28.533-4.385-41.509c-0.185-0.524-1.012-0.465-1.001,0.136c0.285,16.3-15.953,26.381-20.808,41.019
						c-1.833,5.526-2.905,12.648-0.446,18.149c2.688,6.012,7.621,10.09,12.721,14.047C93.959,134.24,94.687,133.524,94.167,133.122
						L94.167,133.122z"/>
				</g>
			</g>
			<g>
				<g>
					<path fill="#3F3F3F" d="M95.853,133.932c11.698-3.223,17.995-14.794,22.279-25.274c2.931-7.17,3.331-14.563,3.165-22.208
						c-0.073-3.346-0.315-6.618-0.984-9.897c-0.947-4.647-3.13-8.803-1.197-13.563c0.162-0.399-0.404-0.838-0.749-0.575
						c-4.611,3.518-8.633,7.144-12.279,11.68c-0.408,0.507,0.309,1.233,0.721,0.721c1.886-2.346,3.814-4.605,6.018-6.66
						c0.855-0.798,1.777-1.526,2.686-2.26c3.215-2.595,1.797-2.156,1.732-0.134c-0.106,3.326,0.784,6.328,1.685,9.51
						c1.208,4.267,1.294,8.678,1.389,13.078c0.347,15.998-7.25,39.784-24.736,44.601C94.949,133.123,95.218,134.107,95.853,133.932
						L95.853,133.932z"/>
				</g>
			</g>
			<g>
				<g>
					<path fill="#3F3F3F" d="M105.353,64.866c1.315-2.306,2.972-4.302,4.985-6.03c1.863-1.599,1.775,0.881,1.999,2.239
						c0.284,1.72,0.518,3.449,0.728,5.179c0.078,0.644,1.099,0.652,1.02,0c-0.248-2.044-0.539-4.081-0.874-6.112
						c-0.168-1.02-0.113-3.231-1.626-3.231c-1.265,0-2.857,1.972-3.641,2.761c-1.373,1.381-2.508,2.994-3.47,4.68
						C104.146,64.923,105.027,65.437,105.353,64.866L105.353,64.866z"/>
				</g>
			</g>
			<g>
				<g>
					<path fill="#3F3F3F" d="M130.779,117.134c1.196-2.207,2.58-4.283,4.21-6.194c0.528-0.619,1.134-1.119,1.985-1.21
						c1.438-0.154,1.335,2.238,1.38,3.026c0.078,1.367,0.154,2.733,0.232,4.1c0.038,0.653,1.057,0.657,1.02,0
						c-0.125-2.19-0.031-4.521-0.482-6.671c-0.248-1.178-1.544-1.539-2.563-1.43c-1.482,0.159-2.526,1.712-3.359,2.769
						c-1.257,1.594-2.337,3.313-3.303,5.096C129.585,117.198,130.466,117.712,130.779,117.134L130.779,117.134z"/>
				</g>
			</g>
			<g>
				<g>
					<path fill="#3F3F3F" d="M86.373,162.57c-0.561-8.847-5.816-13.892-12.322-19.254c-4.4-3.627-8.8-7.256-13.201-10.883
						c-2.19-1.805-3.965-3.492-6.901-3.037c-0.261,0.041-0.442,0.387-0.356,0.627c5.561,15.448,19.273,26.238,33.034,34.222
						c0.57,0.33,1.083-0.551,0.515-0.881c-11.603-6.731-22.622-15.204-29.537-26.912c-0.995-1.685-1.789-3.49-2.524-5.299
						c0.853,0.004,1.705,0.009,2.557,0.013c1.337,1.044,2.657,2.109,3.96,3.196c2.934,2.417,5.867,4.836,8.8,7.255
						c7.044,5.808,14.33,11.063,14.957,20.952C85.395,163.223,86.415,163.228,86.373,162.57L86.373,162.57z"/>
				</g>
			</g>
			<g>
				<g>
					<path fill="#3F3F3F" d="M88.325,214.662c-0.355-4.236,0.308-8.667,1.069-12.818c1.059-5.779,5.208-10.8,8.797-15.271
						c0.606-0.755,4.828-5.038,4.815-4.735c-0.173,4.201-0.586,8.345-1.587,12.437c-1.751,7.159-6.515,16.92-13.739,19.896
						c-0.599,0.246-0.337,1.233,0.271,0.982c12.79-5.268,15.661-23.261,16.153-35.209c0.019-0.452-0.565-0.664-0.87-0.36
						c-4.986,4.957-11.411,11.581-13.838,18.326c-1.811,5.033-2.536,11.431-2.09,16.752C87.36,215.313,88.38,215.317,88.325,214.662
						L88.325,214.662z"/>
				</g>
			</g>
		</g>
		<g>
			<g>
				<g>
					<path fill="#3F3F3F" d="M102.175,69.403c-1.836,20.913-4.766,41.695-8.776,62.302c-0.052,0.265,0.354,0.377,0.405,0.111
						c4.018-20.644,6.951-41.462,8.791-62.413C102.619,69.133,102.198,69.135,102.175,69.403L102.175,69.403z"/>
				</g>
			</g>
			<g>
				<g>
					<path fill="#3F3F3F" d="M94.14,132.028c-5.39-16.132,0.658-32.72,0.171-49.165c-0.008-0.271-0.428-0.271-0.42,0
						c0.488,16.478-5.555,33.12-0.157,49.276C93.82,132.396,94.226,132.286,94.14,132.028L94.14,132.028z"/>
				</g>
			</g>
			<g>
				<g>
					<path fill="#3F3F3F" d="M94.153,131.398c-9.752-10.715-9.369-25.35-7.465-38.821c0.038-0.265-0.368-0.379-0.405-0.111
						c-1.929,13.648-2.283,28.4,7.574,39.229C94.039,131.896,94.335,131.598,94.153,131.398L94.153,131.398z"/>
				</g>
			</g>
			<g>
				<g>
					<path fill="#3F3F3F" d="M96.563,130.633c9.67-10.796,18.084-22.542,25.191-35.176c0.133-0.236-0.23-0.448-0.363-0.212
						c-7.088,12.601-15.478,24.32-25.125,35.091C96.085,130.537,96.382,130.835,96.563,130.633L96.563,130.633z"/>
				</g>
			</g>
			<g>
				<g>
					<path fill="#3F3F3F" d="M97.583,130.002c5.139-8.551,9.866-17.301,13.398-26.648c3.765-9.963,4.25-20.812,8.325-30.637
						c0.104-0.25-0.303-0.358-0.405-0.111c-3.847,9.272-4.531,19.49-7.736,28.992c-3.357,9.95-8.556,19.225-13.945,28.193
						C97.08,130.023,97.443,130.234,97.583,130.002L97.583,130.002z"/>
				</g>
			</g>
			<g>
				<g>
					<path fill="#3F3F3F" d="M124.614,190.054c-1.322-6.692,2.635-15.836,4.764-22.106c1.992-5.868,5.871-11.625,6.579-17.813
						c0.254-2.215-0.971-4.783-1.534-6.846c-1.072-3.93-1.322-8-1.431-12.05c-0.125-4.626-0.746-8.982-4.188-12.323
						c-0.194-0.189-0.492,0.108-0.297,0.297c5.103,4.952,3.781,12.45,4.501,18.891c0.266,2.38,0.849,4.709,1.478,7.014
						c1.549,5.683-0.012,9.115-2.251,14.271c-2.159,4.973-3.907,10.114-5.438,15.313c-1.401,4.757-3.576,10.471-2.589,15.464
						C124.261,190.431,124.666,190.318,124.614,190.054L124.614,190.054z"/>
				</g>
			</g>
			<g>
				<g>
					<path fill="#3F3F3F" d="M128.545,119.187c2.261,13.383-4.613,27.065-6.194,40.249c-1.156,9.641-0.682,19.812,1.286,29.322
						c0.055,0.266,0.46,0.153,0.405-0.111c-2.152-10.399-2.591-21.702-0.785-32.181c2.085-12.099,7.788-24.991,5.693-37.39
						C128.906,118.809,128.5,118.922,128.545,119.187L128.545,119.187z"/>
				</g>
			</g>
			<g>
				<g>
					<path fill="#3F3F3F" d="M124.126,188.65c-4.687-9.416-10.13-18.428-9.682-29.279c0.347-8.387,2.476-17.117,5.597-24.896
						c0.101-0.251-0.306-0.36-0.405-0.111c-3.338,8.321-5.298,17.413-5.668,26.372c-0.422,10.204,5.413,19.322,9.795,28.128
						C123.884,189.105,124.246,188.893,124.126,188.65L124.126,188.65z"/>
				</g>
			</g>
			<g>
				<g>
					<path fill="#3F3F3F" d="M144.622,114.138c-3.918,7.388-5.784,15.308-5.562,23.668c0.007,0.271,0.427,0.271,0.42,0
						c-0.219-8.303,1.614-16.119,5.505-23.457C145.112,114.111,144.749,113.898,144.622,114.138L144.622,114.138z"/>
				</g>
			</g>
			<g>
				<g>
					<path fill="#3F3F3F" d="M129.144,187.062c11.715-14.976,18.385-33.023,19.22-52.018c0.012-0.271-0.408-0.27-0.42,0
						c-0.83,18.873-7.457,36.841-19.097,51.721C128.682,186.976,128.978,187.275,129.144,187.062L129.144,187.062z"/>
				</g>
			</g>
		</g>
	</g>
	<g>
		<g>
			<g>
				<g>
					<path fill="#3F3F3F" d="M51.456,195.802c0.229-4.585-2.328-9.132-4.108-13.267c-2.611-6.065-5.796-11.87-9.283-17.473
						c-2.522-4.052-4.123-7.184-3.395-12.253c0.342-2.377,0.434-4.756,0.44-7.155c0.018-6.605-2.764-13.583,1.688-19.393
						c0.165-0.215-0.201-0.424-0.363-0.212c-2.929,3.822-2.826,8.146-2.322,12.751c0.382,3.496,0.644,6.89,0.498,10.412
						c-0.11,2.654-1.369,6.093-0.649,8.774c1.45,5.4,5.605,10.178,8.283,15.057c1.733,3.157,3.27,6.418,4.739,9.705
						c1.735,3.884,4.268,8.681,4.051,13.054C51.022,196.073,51.443,196.071,51.456,195.802L51.456,195.802z"/>
				</g>
			</g>
			<g>
				<g>
					<path fill="#3F3F3F" d="M36.328,126.235c-0.253,12.437,7.141,24.585,11.113,36.093c3.466,10.04,4.554,21.426,3.956,32
						c-0.016,0.271,0.405,0.27,0.42,0c0.527-9.314-0.478-18.957-2.715-28.01c-3.297-13.342-12.639-26.035-12.354-40.083
						C36.754,125.964,36.333,125.965,36.328,126.235L36.328,126.235z"/>
				</g>
			</g>
			<g>
				<g>
					<path fill="#3F3F3F" d="M51.717,194.456c3.106-9.559,7.184-19.055,5.547-29.267c-1.4-8.734-5.035-17.633-9.485-25.25
						c-0.137-0.234-0.5-0.022-0.363,0.212c4.289,7.341,7.369,15.509,9.187,23.809c2.301,10.504-2.095,20.551-5.29,30.385
						C51.228,194.604,51.634,194.713,51.717,194.456L51.717,194.456z"/>
				</g>
			</g>
			<g>
				<g>
					<path fill="#3F3F3F" d="M19.76,123.86c4.915,6.659,7.912,14.179,8.906,22.395c0.032,0.266,0.453,0.269,0.42,0
						c-1.006-8.311-3.992-15.871-8.963-22.606C19.964,123.432,19.599,123.642,19.76,123.86L19.76,123.86z"/>
				</g>
			</g>
			<g>
				<g>
					<path fill="#3F3F3F" d="M46.398,193.173c-13.721-13.024-22.926-29.837-26.514-48.41c-0.051-0.266-0.457-0.153-0.405,0.111
						c3.601,18.638,12.855,35.528,26.623,48.596C46.297,193.656,46.595,193.359,46.398,193.173L46.398,193.173z"/>
				</g>
			</g>
		</g>
		<g>
			<g>
				<g>
					<path fill="#3F3F3F" d="M51.493,195.572c8.692,22.06,22.433,41.633,40.266,57.263c0.492,0.432,1.216-0.287,0.721-0.721
						c-17.692-15.506-31.379-34.924-40.003-56.813C52.238,194.696,51.252,194.96,51.493,195.572L51.493,195.572z"/>
				</g>
			</g>
			<g>
				<g>
					<path fill="#3F3F3F" d="M52.947,197.437c1.422-6.907,8.099-11.182,10.764-17.635c2.42-5.861,1.578-12.738-0.318-18.591
						c-2.059-6.355-6.388-11.849-10.788-16.749c-6.42-7.151-17.349-14.158-14.789-25.236c0.147-0.64-0.835-0.912-0.983-0.271
						c-1.277,5.528,0.651,10.849,4.302,15.106c5.528,6.446,12.012,11.766,16.871,18.818c5.091,7.389,7.447,16.399,5.204,25.196
						c-1.914,7.506-9.679,11.485-11.245,19.091C51.832,197.807,52.814,198.08,52.947,197.437L52.947,197.437z"/>
				</g>
			</g>
			<g>
				<g>
					<path fill="#3F3F3F" d="M37.74,117.812c-14.888,25.417-10.2,57.562,11.382,77.6c0.481,0.446,1.204-0.272,0.721-0.721
						c-21.253-19.733-25.89-51.326-11.223-76.364C38.953,117.758,38.072,117.245,37.74,117.812L37.74,117.812z"/>
				</g>
			</g>
			<g>
				<g>
					<path fill="#3F3F3F" d="M32.31,130.855c-3.982-4.819-9.016-8.004-15.067-9.562c-0.437-0.112-0.794,0.356-0.575,0.749
						c5.413,9.713,3.199,18.287,0.952,28.46c-1.648,7.462-0.546,15.312,2.129,22.379c5.132,13.558,18.256,22.527,32.355,24.232
						c0.652,0.079,0.644-0.941,0-1.02c-20.56-2.485-35.089-20.08-34.119-40.676c0.401-8.521,4.308-15.787,3.054-24.486
						c-0.316-2.196-1.09-4.293-1.917-6.336c-0.75-1.854-1.522-2.209,0.719-1.49c4.691,1.505,8.656,4.729,11.748,8.471
						C32.008,132.083,32.726,131.357,32.31,130.855L32.31,130.855z"/>
				</g>
			</g>
			<g>
				<g>
					<path fill="#3F3F3F" d="M61.886,217.963c-9.799-3.201-19.883-4.343-30.159-4.4c-5.205-0.029-10.463,0.224-15.639,0.776
						c-2.38,0.254-4.188,1.078-5.514,3.056c-0.149,0.222-0.053,0.575,0.183,0.697c17.193,8.852,37.499,18.32,56.335,8.368
						c0.581-0.308,0.066-1.188-0.515-0.881c-16.616,8.779-34.864,1.907-50.377-5.847c-1.173-0.587-6.89-2.49-1.227-4.169
						c2.377-0.704,5.276-0.562,7.741-0.711c4.201-0.256,8.409-0.307,12.615-0.226c8.937,0.172,17.787,1.543,26.285,4.318
						C62.242,219.15,62.508,218.166,61.886,217.963L61.886,217.963z"/>
				</g>
			</g>
		</g>
	</g>
	<path fill="#3F3F3F" d="M192.797,85.493c5.836-1.117,13.477-1.949,23.201-1.949c11.95,0,20.708,2.78,26.258,7.78
		c5.147,4.446,8.343,11.256,8.343,19.595c0,8.472-2.502,15.144-7.369,20.01c-6.39,6.807-16.811,10.279-28.618,10.279
		c-3.615,0-6.953-0.139-9.729-0.832v37.519h-12.087V85.493z M204.885,130.51c2.642,0.697,6.114,0.974,10.001,0.974
		c14.732,0,23.483-7.23,23.483-19.867c0-12.508-8.75-18.482-22.093-18.482c-5.277,0-9.309,0.554-11.391,0.97V130.51z"/>
	<path fill="#3F3F3F" d="M274.905,84.241h12.23v83.506h40.017v10.148h-52.248V84.241z"/>
	<path fill="#3F3F3F" d="M364.377,148.434l-9.725,29.462h-12.512l31.826-93.654h14.586l31.955,93.654h-12.916l-10.008-29.462
		H364.377z M395.086,138.987l-9.313-26.959c-1.943-6.114-3.334-11.672-4.719-17.089h-0.422c-1.246,5.417-2.783,11.256-4.588,16.954
		l-9.166,27.094H395.086z"/>
	<path fill="#3F3F3F" d="M442.592,177.896V84.241h13.344l29.873,47.381c6.807,10.979,12.365,20.704,16.668,30.428l0.42-0.134
		c-1.107-12.508-1.391-23.899-1.391-38.351V84.241h11.4v93.654h-12.234l-29.734-47.528c-6.529-10.417-12.785-21.119-17.365-31.259
		l-0.42,0.139c0.697,11.811,0.836,23.067,0.836,38.627v40.021H442.592z"/>
	<path fill="#3F3F3F" d="M560.131,94.523h-28.482V84.241h69.336v10.282h-28.625v83.372h-12.229V94.523z"/>
	<path fill="#3F3F3F" d="M191.643,207.436h15.261v3.074h-11.563v9.422h10.682v3.023h-10.682v12.83h-3.698V207.436z"/>
	<path fill="#3F3F3F" d="M229.812,207.436h3.703v25.276h12.109v3.073h-15.812V207.436z"/>
	<path fill="#3F3F3F" d="M276.807,236.247c-7.524,0-12.738-5.803-12.738-14.385c0-9.002,5.55-14.889,13.112-14.889
		c7.784,0,12.793,5.93,12.793,14.343c0,9.716-5.928,14.931-13.121,14.931H276.807z M276.975,233.258
		c5.807,0,9.082-5.341,9.082-11.772c0-5.636-2.935-11.521-9.031-11.521c-6.1,0-9.132,5.676-9.132,11.814
		c0,5.971,3.283,11.479,9.048,11.479H276.975z"/>
	<path fill="#3F3F3F" d="M312.414,207.856c1.857-0.378,4.549-0.63,7.029-0.63c3.904,0,6.475,0.76,8.246,2.359
		c1.381,1.218,2.217,3.153,2.217,5.383c0,3.699-2.385,6.18-5.332,7.188v0.126c2.146,0.755,3.443,2.779,4.156,5.718
		c0.938,3.955,1.604,6.688,2.15,7.784h-3.783c-0.463-0.802-1.092-3.242-1.855-6.772c-0.836-3.909-2.389-5.383-5.711-5.509h-3.455
		v12.281h-3.662V207.856z M316.076,220.729h3.744c3.906,0,6.393-2.145,6.393-5.382c0-3.661-2.646-5.257-6.514-5.257
		c-1.768,0-2.994,0.168-3.623,0.336V220.729z"/>
	<path fill="#3F3F3F" d="M356.387,207.436v28.35h-3.699v-28.35H356.387z"/>
	<path fill="#3F3F3F" d="M380.004,231.326c1.639,1.05,3.988,1.848,6.512,1.848c3.746,0,5.93-1.932,5.93-4.837
		c0-2.603-1.504-4.157-5.338-5.593c-4.631-1.68-7.48-4.119-7.48-8.069c0-4.417,3.652-7.701,9.17-7.701
		c2.859,0,4.992,0.677,6.217,1.386l-1.008,2.99c-0.885-0.546-2.775-1.344-5.346-1.344c-3.865,0-5.336,2.31-5.336,4.244
		c0,2.649,1.723,3.951,5.639,5.472c4.787,1.889,7.189,4.156,7.189,8.321c0,4.375-3.199,8.204-9.879,8.204
		c-2.742,0-5.725-0.84-7.24-1.852L380.004,231.326z"/>
	<path fill="#3F3F3F" d="M424.27,210.551h-8.619v-3.115h20.984v3.115h-8.658v25.234h-3.707V210.551z"/>
</g>
</svg>
