<svg width="1429" height="857" viewBox="0 0 1429 857" fill="none" xmlns="http://www.w3.org/2000/svg">
<path d="M251.066 48C160.209 115.791 18.2106 199.368 97.0721 231.349C195.649 271.324 214.842 151.935 259.974 207.401C296.079 251.773 220.78 296.512 178.618 313.335C84.594 335.321 22.1995 406.877 124.814 517.208C190.136 643.13 169.946 617.146 168.758 741.568C162.82 782.709 161.514 863.093 203.795 855.497C256.646 846.003 350.472 788.539 407.481 738.57C453.087 698.595 613.74 494.056 688.365 396.783C762.199 285.685 943.834 95.8702 1079.7 225.39C1249.54 387.289 1392.06 437.757 1361.78 527.701C1337.55 599.657 1074.16 611.316 945.497 608.151C873.642 602.155 632.545 608.151 886.113 400.78C973.605 335.821 1228.47 169.406 1428 143.422" stroke="#FE4608"/>
<path d="M670 140.308C670 62.8179 732.818 0 810.308 0C816.765 0 822 5.23482 822 11.6923V137C822 145.284 815.284 152 807 152H681.692C675.235 152 670 146.765 670 140.308Z" fill="#A3CFFF"/>
<path d="M1427 393.692C1427 464.555 1369.55 522 1298.69 522C1292.79 522 1288 517.213 1288 511.308L1288 398C1288 389.716 1294.72 383 1303 383L1416.31 383C1422.21 383 1427 387.787 1427 393.692Z" fill="#FFB5D1"/>
<path d="M1086 841.769C1086 747.456 1162.46 671 1256.77 671C1264.63 671 1271 677.371 1271 685.231V841C1271 849.284 1264.28 856 1256 856H1100.23C1092.37 856 1086 849.629 1086 841.769Z" fill="#3182FF"/>
<path d="M74.4394 146.042C90.606 107.911 134.623 90.1056 172.754 106.272V106.272C175.931 107.619 177.415 111.288 176.068 114.465L152.651 169.697C149.417 177.324 140.613 180.886 132.986 177.652L77.7536 154.235C74.576 152.888 73.0922 149.22 74.4394 146.042V146.042Z" fill="#FFB5D1"/>
<ellipse cx="109" cy="482.5" rx="94" ry="93.5" fill="#FEAA00"/>
<ellipse cx="46" cy="682.5" rx="46" ry="45.5" fill="#3182FF"/>
<path d="M390 712.5C390 726.507 378.436 738 364 738C349.564 738 338 726.507 338 712.5C338 698.493 349.564 687 364 687C378.436 687 390 698.493 390 712.5Z" fill="#05543D" stroke="white" stroke-width="10"/>
<path d="M290 230.5C290 244.507 278.436 256 264 256C249.564 256 238 244.507 238 230.5C238 216.493 249.564 205 264 205C278.436 205 290 216.493 290 230.5Z" fill="#FE4200" stroke="white" stroke-width="10"/>
<path d="M1032 199.5C1032 213.507 1020.44 225 1006 225C991.564 225 980 213.507 980 199.5C980 185.493 991.564 174 1006 174C1020.44 174 1032 185.493 1032 199.5Z" fill="#05543D" stroke="white" stroke-width="10"/>
<ellipse cx="903" cy="425.5" rx="17" ry="16.5" fill="#FFB5D1"/>
<path d="M1015 606.5C1015 620.507 1003.44 632 989 632C974.564 632 963 620.507 963 606.5C963 592.493 974.564 581 989 581C1003.44 581 1015 592.493 1015 606.5Z" fill="#FEAA00" stroke="white" stroke-width="10"/>
</svg>
