<?xml version="1.0" encoding="utf-8"?>
<!-- Generator: Adobe Illustrator 16.0.0, SVG Export Plug-In . SVG Version: 6.00 Build 0)  -->
<!DOCTYPE svg PUBLIC "-//W3C//DTD SVG 1.1//EN" "http://www.w3.org/Graphics/SVG/1.1/DTD/svg11.dtd">
<svg version="1.1" id="Layer_1" xmlns="http://www.w3.org/2000/svg" xmlns:xlink="http://www.w3.org/1999/xlink" x="0px" y="0px"
	 width="612px" height="309.89px" viewBox="0 0 612 309.89" enable-background="new 0 0 612 309.89" xml:space="preserve">
<g>
	<g>
		<g>
			<g>
				<g>
					<path fill="#3F3F3F" d="M472.838,103.361c-0.436,15.396,8.581,31.173,17.83,42.938c10.26,13.051,23.204,23.528,38.205,30.659
						c0.869,0.413,1.631-0.88,0.758-1.295c-13.484-6.41-25.266-15.522-34.995-26.837c-10.359-12.046-20.761-29.108-20.298-45.465
						C474.365,102.394,472.865,102.396,472.838,103.361L472.838,103.361z"/>
				</g>
			</g>
			<g>
				<g>
					<path fill="#3F3F3F" d="M529.742,175.707c-10.869-27.428-15.223-56.896-12.748-86.295c0.081-0.964-1.42-0.957-1.5,0
						c-2.484,29.521,1.887,59.15,12.801,86.693C528.647,176.994,530.099,176.607,529.742,175.707L529.742,175.707z"/>
				</g>
			</g>
			<g>
				<g>
					<path fill="#3F3F3F" d="M527.067,174.364c-25.181-19.941-26.072-54.449-32.675-83.264c-0.217-0.943-1.663-0.543-1.447,0.398
						c6.661,29.067,7.665,63.813,33.062,83.926C526.757,176.019,527.825,174.965,527.067,174.364L527.067,174.364z"/>
				</g>
			</g>
			<g>
				<g>
					<path fill="#3F3F3F" d="M530.501,174.322c-4.298-25.382-0.598-51.449,10.586-74.634c0.418-0.867-0.875-1.628-1.295-0.757
						c-11.375,23.581-15.107,49.978-10.738,75.79C529.215,175.673,530.661,175.268,530.501,174.322L530.501,174.322z"/>
				</g>
			</g>
			<g>
				<g>
					<path fill="#3F3F3F" d="M530.353,176.371c8.012-27.489,20.627-53.332,37.353-76.57c0.566-0.787-0.735-1.534-1.295-0.757
						c-16.8,23.339-29.459,49.322-37.505,76.928C528.635,176.903,530.082,177.298,530.353,176.371L530.353,176.371z"/>
				</g>
			</g>
			<g>
				<g>
					<path fill="#3F3F3F" d="M531.879,177.063c14.402-14.586,26.876-30.854,37.224-48.549c0.489-0.836-0.808-1.591-1.295-0.757
						c-10.284,17.586-22.676,33.75-36.989,48.246C530.139,176.69,531.198,177.752,531.879,177.063L531.879,177.063z"/>
				</g>
			</g>
			<g>
				<g>
					<path fill="#3F3F3F" d="M529.759,177.098c24.001-5.45,45.274-19.188,60.188-38.754c0.587-0.77-0.717-1.515-1.295-0.757
						c-14.673,19.251-35.696,32.707-59.291,38.064C528.417,175.865,528.817,177.312,529.759,177.098L529.759,177.098z"/>
				</g>
			</g>
			<g>
				<g>
					<path fill="#3F3F3F" d="M530.731,177.481c21.483,2.496,43.052-1.565,62.183-11.644c0.855-0.451,0.098-1.745-0.758-1.295
						c-18.908,9.961-40.2,13.904-61.425,11.438C529.771,175.87,529.782,177.371,530.731,177.481L530.731,177.481z"/>
				</g>
			</g>
			<g>
				<g>
					<path fill="#3F3F3F" d="M468.83,95.335c2.466-4.443,10.002-2.621,9.134,2.78c-0.396,2.466-2.497,4.308-4.976,4.271
						c-3.046-0.046-5.074-3.409-4.72-6.13c0.125-0.957-1.377-0.945-1.5,0c-0.447,3.434,2.117,7.096,5.653,7.556
						c3.487,0.454,6.191-2.029,6.988-5.298c1.729-7.093-8.664-9.722-11.875-3.935C467.065,95.425,468.361,96.181,468.83,95.335
						L468.83,95.335z"/>
				</g>
			</g>
			<g>
				<g>
					<path fill="#3F3F3F" d="M487.667,84.942c0.637-1.856,2.499-2.735,4.367-2.688c2.116,0.054,3.262,1.938,3.253,3.862
						c-0.008,2.007-1.484,3.777-3.511,3.881c-2.262,0.115-4.277-2.004-4.271-4.182c0.003-0.967-1.497-0.967-1.5,0
						c-0.009,2.784,2.227,5.269,5.002,5.619c3.031,0.381,5.327-1.847,5.728-4.755c0.386-2.806-1.328-5.374-4.145-5.862
						c-2.707-0.47-5.485,1.149-6.371,3.727C485.905,85.461,487.354,85.852,487.667,84.942L487.667,84.942z"/>
				</g>
			</g>
			<g>
				<g>
					<path fill="#3F3F3F" d="M511.854,82.806c0.812-2.122,2.949-3.396,5.196-2.914c2.326,0.5,3.597,3.305,2.69,5.395
						c-0.938,2.162-3.532,2.711-5.424,1.577c-1.598-0.958-2.279-3.049-2.522-4.778c-0.135-0.955-1.58-0.547-1.447,0.398
						c0.417,2.951,2.131,5.824,5.219,6.467c2.859,0.596,5.537-1.873,5.978-4.551c0.473-2.88-1.931-5.489-4.597-6.062
						c-2.874-0.618-5.565,1.525-6.54,4.07C510.061,83.312,511.511,83.7,511.854,82.806L511.854,82.806z"/>
				</g>
			</g>
			<g>
				<g>
					<path fill="#3F3F3F" d="M537.572,92.611c-0.403-2.205,1.933-3.797,3.932-3.458c2.181,0.37,3.292,2.874,3.447,4.825
						c0.183,2.305-1.247,3.922-3.535,3.89c-2.544-0.035-3.63-2.912-3.552-5.017c0.036-0.968-1.464-0.964-1.5,0
						c-0.12,3.243,1.723,6.095,5.052,6.517c3.483,0.441,5.229-2.943,4.993-5.918c-0.239-3.009-2.571-5.779-5.675-5.866
						c-2.846-0.08-5.1,2.744-4.609,5.426C536.299,93.96,537.745,93.557,537.572,92.611L537.572,92.611z"/>
				</g>
			</g>
			<g>
				<g>
					<path fill="#3F3F3F" d="M565.821,91.843c1.663-1.402,4.131-1.375,5.827-0.038c1.827,1.439,1.647,4.158,0.506,5.931
						c-1.23,1.911-3.896,1.897-5.69,0.941c-1.811-0.964-2.987-4.636-0.352-5.387c0.929-0.264,0.534-1.712-0.398-1.446
						c-2.796,0.796-3.339,4.501-1.686,6.629c1.91,2.457,6.019,3.307,8.464,1.084c2.203-2.002,2.868-5.847,0.795-8.213
						c-2.198-2.508-6.012-2.683-8.526-0.563C564.021,91.406,565.087,92.462,565.821,91.843L565.821,91.843z"/>
				</g>
			</g>
			<g>
				<g>
					<path fill="#3F3F3F" d="M566.999,122.211c-0.229-2.518,1.989-4.398,4.437-3.743c2.482,0.665,3.135,3.737,2.153,5.759
						c-0.933,1.921-3.196,2.809-5.206,2.438c-2.206-0.406-3.651-3.374-1.531-4.873c0.782-0.554,0.034-1.855-0.758-1.295
						c-2.578,1.823-2.105,5.203,0.276,6.939c2.896,2.112,6.852,0.226,8.514-2.453c1.885-3.038-0.034-6.707-3.05-7.962
						c-3.27-1.361-6.622,2.029-6.335,5.189C565.586,123.166,567.087,123.175,566.999,122.211L566.999,122.211z"/>
				</g>
			</g>
			<g>
				<g>
					<path fill="#3F3F3F" d="M591.211,130.04c1.148-2.679,3.779-0.064,4.289,1.515c0.475,1.472,0.542,3.338,0.13,4.828
						c-0.7,2.535-4.246,1.346-5.766,0.493c-2.01-1.127-2.814-4.271-0.446-5.491c0.859-0.443,0.101-1.737-0.758-1.295
						c-2.507,1.292-2.924,4.882-0.979,6.893c2.06,2.13,6.019,3.47,8.501,1.327c2.219-1.914,1.222-6.734,0.019-8.886
						c-1.273-2.278-5.148-2.789-6.284-0.14C589.539,130.162,590.831,130.926,591.211,130.04L591.211,130.04z"/>
				</g>
			</g>
			<g>
				<g>
					<path fill="#3F3F3F" d="M592.738,162.997c-0.012-3.072,3.306-4.205,5.556-2.442c1.699,1.33,1.514,3.534,0.505,5.183
						c-2.551,4.167-8.284,0.372-6.896-3.752c0.309-0.919-1.14-1.311-1.447-0.398c-0.933,2.772,0.508,5.662,3.028,6.994
						c2.764,1.461,5.792-0.373,7.059-2.896c1.349-2.685,0.043-6.243-2.873-7.22c-3.192-1.068-6.445,1.095-6.432,4.531
						C591.242,163.964,592.742,163.965,592.738,162.997L592.738,162.997z"/>
				</g>
			</g>
			<g>
				<g>
					<path fill="#3F3F3F" d="M529.642,167.944c-3.649,2.318-3.328,8.721-3.527,12.57c-0.363,6.993,1.061,14.086,2.616,20.859
						c2.488,10.825,6.604,21.745,15.851,28.524c0.782,0.573,1.528-0.729,0.758-1.295c-8.139-5.967-11.883-15.271-14.437-24.713
						c-1.402-5.187-2.412-10.489-3.012-15.827c-0.281-2.508-0.312-5.028-0.276-7.549c0.036-2.682-0.016-9.496,2.785-11.275
						C531.213,168.723,530.461,167.424,529.642,167.944L529.642,167.944z"/>
				</g>
			</g>
		</g>
	</g>
	<g>
		<g>
			<path fill="#3F3F3F" d="M89.08,144.966H64.081v23.278h27.97v6.99h-36.4v-64.567h34.965v6.994H64.081v20.405H89.08V144.966z"/>
			<path fill="#3F3F3F" d="M107.578,165.081c3.729,2.395,9.098,4.216,14.844,4.216c8.526,0,13.51-4.407,13.51-11.02
				c0-5.938-3.448-9.48-12.171-12.736c-10.533-3.831-17.048-9.391-17.048-18.397c0-10.058,8.334-17.528,20.879-17.528
				c6.52,0,11.403,1.536,14.182,3.164l-2.3,6.798c-2.011-1.243-6.323-3.068-12.166-3.068c-8.814,0-12.17,5.273-12.17,9.68
				c0,6.035,3.932,9.001,12.837,12.453c10.923,4.312,16.387,9.488,16.387,18.969c0,9.962-7.284,18.681-22.512,18.681
				c-6.227,0-13.03-1.922-16.477-4.216L107.578,165.081z"/>
			<path fill="#3F3F3F" d="M160.557,165.081c3.735,2.395,9.098,4.216,14.85,4.216c8.521,0,13.504-4.407,13.504-11.02
				c0-5.938-3.447-9.48-12.165-12.736c-10.538-3.831-17.048-9.391-17.048-18.397c0-10.058,8.33-17.528,20.879-17.528
				c6.515,0,11.397,1.536,14.177,3.164l-2.294,6.798c-2.012-1.243-6.329-3.068-12.171-3.068c-8.814,0-12.16,5.273-12.16,9.68
				c0,6.035,3.922,9.001,12.833,12.453c10.921,4.312,16.38,9.488,16.38,18.969c0,9.962-7.278,18.681-22.511,18.681
				c-6.227,0-13.03-1.922-16.478-4.216L160.557,165.081z"/>
			<path fill="#3F3F3F" d="M247.924,144.966h-24.999v23.278h27.97v6.99h-36.4v-64.567h34.965v6.994h-26.535v20.405h24.999V144.966z"
				/>
			<path fill="#3F3F3F" d="M267.475,175.234v-64.567h9.198l20.595,32.67c4.696,7.566,8.526,14.273,11.494,20.977l0.288-0.091
				c-0.768-8.623-0.96-16.479-0.96-26.444v-27.111h7.854v64.567h-8.426l-20.499-32.761c-4.505-7.184-8.815-14.562-11.975-21.557
				l-0.289,0.102c0.48,8.137,0.571,15.9,0.571,26.625v27.591H267.475z"/>
			<path fill="#3F3F3F" d="M381.285,173.223c-2.972,1.532-9.199,3.068-17.052,3.068c-18.196,0-31.801-11.498-31.801-32.761
				c0-20.309,13.695-33.915,33.721-33.915c7.945,0,13.121,1.729,15.324,2.872l-2.112,6.803c-3.063-1.532-7.561-2.679-12.928-2.679
				c-15.134,0-25.192,9.673-25.192,26.625c0,15.905,9.1,25.964,24.716,25.964c5.166,0,10.342-1.056,13.697-2.684L381.285,173.223z"
				/>
			<path fill="#3F3F3F" d="M430.919,144.966h-25.01v23.278h27.981v6.99h-36.411v-64.567h34.965v6.994h-26.535v20.405h25.01V144.966z
				"/>
		</g>
	</g>
	<g>
		<g>
			<path fill="#3F3F3F" d="M142.442,226.874c1.663,1.066,4.053,1.881,6.621,1.881c3.801,0,6.025-1.966,6.025-4.913
				c0-2.649-1.537-4.23-5.429-5.681c-4.701-1.714-7.602-4.191-7.602-8.204c0-4.487,3.715-7.819,9.31-7.819
				c2.906,0,5.085,0.685,6.322,1.41l-1.026,3.033c-0.895-0.556-2.82-1.37-5.423-1.37c-3.932,0-5.423,2.351-5.423,4.317
				c0,2.692,1.749,4.018,5.721,5.555c4.873,1.92,7.309,4.229,7.309,8.46c0,4.443-3.25,8.329-10.042,8.329
				c-2.775,0-5.807-0.854-7.349-1.88L142.442,226.874z"/>
			<path fill="#3F3F3F" d="M183.139,205.768h-8.754v-3.158h21.319v3.158h-8.804v25.635h-3.76V205.768z"/>
			<path fill="#3F3F3F" d="M216.325,202.609v17.088c0,6.408,2.86,9.143,6.707,9.143c4.23,0,7.011-2.819,7.011-9.143v-17.088h3.755
				v16.829c0,8.846-4.655,12.434-10.893,12.434c-5.898,0-10.34-3.33-10.34-12.307v-16.956H216.325z"/>
			<path fill="#3F3F3F" d="M253.914,202.992c2.31-0.343,4.999-0.6,7.951-0.6c5.336,0,9.138,1.197,11.66,3.547
				c2.604,2.351,4.099,5.726,4.099,10.382c0,4.7-1.496,8.546-4.145,11.195c-2.729,2.688-7.177,4.145-12.772,4.145
				c-2.693,0-4.867-0.087-6.792-0.345V202.992z M257.674,228.496c0.939,0.173,2.309,0.173,3.755,0.173
				c7.95,0.039,12.267-4.443,12.267-12.222c0.04-6.88-3.807-11.104-11.665-11.104c-1.926,0-3.372,0.166-4.357,0.383V228.496z"/>
			<path fill="#3F3F3F" d="M299.832,202.609v28.793h-3.762v-28.793H299.832z"/>
			<path fill="#3F3F3F" d="M331.258,231.872c-7.651,0-12.948-5.898-12.948-14.611c0-9.144,5.641-15.123,13.334-15.123
				c7.905,0,12.988,6.025,12.988,14.566c0,9.872-6.024,15.168-13.333,15.168H331.258z M331.431,228.84
				c5.894,0,9.229-5.428,9.229-11.963c0-5.727-2.992-11.706-9.189-11.706s-9.27,5.768-9.27,12.004
				c0,6.065,3.326,11.665,9.179,11.665H331.431z"/>
		</g>
	</g>
	<g>
		<g>
			<g>
				<path fill="#3F3F3F" d="M11.654,78.518c32.854,0,65.707,0,98.561,0c64.181,0,128.363,0,192.544,0c43.941,0,87.881,0,131.823,0
					c1.83,0,3.661,0,5.491,0c0.645,0,0.645-1,0-1c-32.854,0-65.707,0-98.561,0c-64.181,0-128.363,0-192.544,0
					c-43.941,0-87.882,0-131.822,0c-1.831,0-3.661,0-5.492,0C11.009,77.518,11.009,78.518,11.654,78.518L11.654,78.518z"/>
			</g>
		</g>
		<g>
			<g>
				<path fill="#3F3F3F" d="M377.564,214.172c31.449,0,62.899,0,94.349,0c0.645,0,0.645-1,0-1c-31.449,0-62.899,0-94.349,0
					C376.92,213.172,376.92,214.172,377.564,214.172L377.564,214.172z"/>
			</g>
		</g>
		<g>
			<g>
				<path fill="#3F3F3F" d="M11.654,214.172c31.763,0,63.525,0,95.288,0c0.645,0,0.645-1,0-1c-31.763,0-63.525,0-95.288,0
					C11.009,213.172,11.009,214.172,11.654,214.172L11.654,214.172z"/>
			</g>
		</g>
	</g>
</g>
</svg>
