<svg width="194" height="48" viewBox="0 0 194 48" fill="none" xmlns="http://www.w3.org/2000/svg">
<path d="M18.2444 12.8601C18.1327 12.7057 18.0057 12.6243 17.8641 12.6243C17.7476 12.6243 17.6416 12.6786 17.5728 12.7252C16.4999 13.6091 15.0321 17.3508 13.8289 22.2826L14.8937 22.2953C16.9975 22.3199 19.1692 22.3462 21.3167 22.381C20.7511 20.122 20.2155 18.1863 19.7251 16.623C19.0082 14.3386 18.5244 13.3156 18.2444 12.8601Z" fill="#10069F"/>
<path d="M20.6322 3.35205C9.50496 3.35205 0.48468 12.8085 0.48468 24.4737C0.48468 36.139 9.50496 45.5954 20.6322 45.5954C31.7595 45.5954 40.7798 36.139 40.7798 24.4737C40.7798 12.8085 31.7595 3.35205 20.6322 3.35205ZM35.1199 24.8571C35.1183 24.8588 35.1166 24.8597 35.115 24.8614C35.0932 24.88 35.0713 24.897 35.0479 24.914C35.0406 24.9191 35.0333 24.925 35.0252 24.9301C35.0098 24.9403 34.9937 24.9505 34.9783 24.9598C34.9637 24.9691 34.9492 24.9776 34.9346 24.9861C34.9338 24.9869 34.933 24.9869 34.9322 24.9878C34.7841 25.0692 34.615 25.1159 34.4362 25.1159C34.4216 25.1159 24.8924 25.1159 24.8924 25.1159C24.9684 25.4475 25.0518 25.8242 25.1424 26.2339C25.6651 28.6014 27.0552 34.8912 28.5311 34.8912L28.5602 34.8921L28.5764 34.8895H28.6047C29.7577 34.8895 30.346 33.1421 31.6357 29.3131L31.6511 29.2664C31.8582 28.6514 32.0921 27.9575 32.3453 27.2238L32.4101 27.0363H32.4109C32.4764 26.8531 32.6447 26.7225 32.843 26.7225C33.0978 26.7225 33.305 26.9396 33.305 27.2068C33.305 27.2552 33.2977 27.3018 33.2856 27.3459L33.2322 27.5343C33.0978 27.9898 32.9546 28.6107 32.7896 29.3292C32.0209 32.6688 30.8598 37.7142 27.8805 37.7142H27.8587C25.9337 37.6981 24.7815 34.4722 24.2896 33.0946C23.3696 30.5184 22.6737 27.7735 22.0021 25.115H13.2165L11.3927 31.2344L11.366 31.2123C11.1993 31.4871 10.9064 31.6636 10.5835 31.6636C10.0746 31.6636 9.65789 31.2293 9.65546 30.6957L9.65708 30.6626L9.76713 29.9705C10.0188 28.3978 10.3206 26.7657 10.6653 25.1159H6.95618L6.94242 25.1014C6.26922 24.9997 5.75218 24.377 5.75218 23.6509C5.75218 22.9392 6.23281 22.3327 6.89468 22.2097C6.95537 22.2012 7.07836 22.1902 7.32838 22.1902C7.38178 22.1902 7.44166 22.1902 7.50882 22.1919C8.6845 22.2131 9.93219 22.2326 11.3004 22.2513C13.2367 14.0028 15.4796 9.81579 17.9678 9.80392C20.6371 9.80392 22.6179 16.1761 24.203 22.4099L24.2095 22.4345C27.4662 22.5032 30.9374 22.6025 34.3124 22.8561L34.454 22.8697C34.5082 22.8705 34.5616 22.8765 34.6134 22.8849L34.6328 22.8866C34.6384 22.8875 34.6441 22.8892 34.6498 22.8909C34.653 22.8917 34.6554 22.8926 34.6587 22.8926C35.1498 22.9961 35.5139 23.4473 35.5139 23.9902C35.5139 24.338 35.3602 24.651 35.1199 24.8571Z" fill="#10069F"/>
<path d="M51.9606 29.7584L50.3633 33.8962H45.7229L54.5522 12.2902H58.6505L67.4491 33.8971H62.8386L61.2414 29.7592H51.9606V29.7584ZM56.571 17.7547L53.5578 25.6206H59.6441L56.571 17.7547Z" fill="#10069F"/>
<path d="M93.6029 25.5892V33.8971H89.4148V25.9684C89.4148 23.5678 88.2998 22.2725 86.3417 22.2725C85.4678 22.2725 84.5034 22.6831 83.6295 23.947C83.6902 24.4839 83.75 25.0209 83.75 25.5892V33.8971H79.5619V25.9684C79.5619 23.5678 78.4469 22.2725 76.4581 22.2725C75.6449 22.2725 74.7403 22.7781 73.8972 23.9784V33.8971H69.709V18.7658H73.8972V19.6819C74.801 18.7972 75.7655 18.2916 77.4525 18.2916C79.2909 18.2916 80.9172 19.05 82.063 20.4394C83.5995 18.955 85.0463 18.2916 87.3062 18.2916C90.8308 18.2916 93.6029 21.1664 93.6029 25.5892Z" fill="#10069F"/>
<path d="M112.013 26.3466C112.013 30.7372 108.819 34.2117 104.842 34.2117C103.215 34.2117 101.858 33.7698 100.744 33.0114V41.1929H96.5562V18.7649H100.744V19.6496C101.859 18.8913 103.215 18.4493 104.842 18.4493C108.819 18.4502 112.013 21.8933 112.013 26.3466ZM107.885 26.3466C107.885 24.1038 106.318 22.1452 104.148 22.1452C102.913 22.1452 101.677 22.5872 100.743 23.9138V28.7472C101.677 30.0425 102.913 30.4845 104.148 30.4845C106.318 30.4853 107.885 28.5581 107.885 26.3466Z" fill="#10069F"/>
<path d="M118.551 33.8961H114.363V11.469H118.551V33.8961Z" fill="#10069F"/>
<path d="M122.318 13.4277C122.318 11.9432 123.433 10.8371 124.849 10.8371C126.235 10.8371 127.35 11.9424 127.35 13.4277C127.35 14.8807 126.235 15.9546 124.849 15.9546C123.433 15.9546 122.318 14.8807 122.318 13.4277ZM126.958 18.7658V33.897H122.77V18.7658H126.958Z" fill="#10069F"/>
<path d="M142.174 33.6755C140.426 34.2438 139.643 34.3702 138.287 34.3702C134.791 34.3702 132.502 31.7796 132.502 27.8632V22.4615H129.458V18.7657H132.502V13.364H136.66V18.7657H141.872V22.4615H136.66V27.8319C136.66 29.5377 137.654 30.3274 139.191 30.3274C139.974 30.3274 140.818 30.1383 141.631 29.9169L142.174 33.6755Z" fill="#10069F"/>
<path d="M158.987 33.8962H154.799V32.8223C153.624 33.8012 152.298 34.3703 150.671 34.3703C146.874 34.3703 144.343 31.4956 144.343 27.105V18.7657H148.531V26.6944C148.531 29.095 149.676 30.3903 151.635 30.3903C152.69 30.3903 153.834 29.727 154.799 28.4953V18.7657H158.987V33.8962Z" fill="#10069F"/>
<path d="M176.765 33.8961H172.577V33.0113C171.462 33.7697 170.106 34.2116 168.479 34.2116C164.501 34.2116 161.278 30.7685 161.278 26.3143C161.278 21.9237 164.502 18.4484 168.479 18.4484C170.106 18.4484 171.462 18.8904 172.577 19.6487V11.4689H176.765V33.8961ZM172.577 28.748V23.9146C171.643 22.6193 170.407 22.1774 169.172 22.1774C166.973 22.1774 165.435 24.1046 165.435 26.3152C165.435 28.558 166.972 30.5166 169.172 30.5166C170.407 30.5166 171.643 30.0747 172.577 28.748Z" fill="#10069F"/>
<path d="M193.759 27.4528H183.123C183.454 29.2215 184.569 30.6118 186.859 30.6118C188.034 30.6118 188.848 30.2326 189.3 29.4742H193.669C192.886 32.3804 190.174 34.3704 186.769 34.3704C182.128 34.3704 178.995 30.8645 178.995 26.3467C178.995 21.6719 182.098 18.2916 186.648 18.2916C190.776 18.2916 193.85 21.3555 193.85 26.0311C193.85 26.6631 193.82 27.01 193.759 27.4528ZM183.153 24.8622H189.691C189.45 22.9672 188.365 21.9247 186.678 21.9247C184.659 21.9247 183.544 23.1564 183.153 24.8622Z" fill="#10069F"/>
</svg>
