<?xml version="1.0" encoding="utf-8"?>
<!-- Generator: Adobe Illustrator 16.0.0, SVG Export Plug-In . SVG Version: 6.00 Build 0)  -->
<!DOCTYPE svg PUBLIC "-//W3C//DTD SVG 1.1//EN" "http://www.w3.org/Graphics/SVG/1.1/DTD/svg11.dtd">
<svg version="1.1" id="Layer_1" xmlns="http://www.w3.org/2000/svg" xmlns:xlink="http://www.w3.org/1999/xlink" x="0px" y="0px"
	 width="612px" height="309.89px" viewBox="0 0 612 309.89" enable-background="new 0 0 612 309.89" xml:space="preserve">
<g>
	<g>
		<g>
			<path fill="#3F3F3F" d="M101.946,174.877c-5.911,2.272-17.735,5.604-31.529,5.604c-15.464,0-28.191-3.94-38.208-13.493
				c-8.786-8.489-14.246-22.135-14.246-38.05c0-30.477,21.075-52.756,55.342-52.756c11.823,0,21.225,2.574,25.618,4.695l-3.34,10.77
				c-5.46-2.58-12.274-4.4-22.594-4.4c-24.85,0-41.082,15.463-41.082,41.089c0,25.919,15.464,41.232,39.426,41.232
				c8.636,0,14.547-1.219,17.586-2.729v-30.471H68.294V125.75h33.652V174.877z"/>
			<path fill="#3F3F3F" d="M147.584,147.281l-10.62,32.138h-13.644l34.718-102.183h15.915l34.87,102.183h-14.095l-10.921-32.138
				H147.584z M181.084,136.971l-10.154-29.408c-2.122-6.671-3.64-12.734-5.158-18.653h-0.453
				c-1.369,5.919-3.038,12.291-5.008,18.501l-10.003,29.56H181.084z"/>
			<path fill="#3F3F3F" d="M232.937,78.756c6.665-1.362,16.367-2.273,25.317-2.273c14.095,0,23.345,2.725,29.71,8.485
				c5.008,4.4,8.033,11.372,8.033,19.406c0,13.343-8.634,22.293-19.255,25.932v0.451c7.733,2.725,12.44,10.005,15.013,20.616
				c3.34,14.255,5.761,24.105,7.733,28.046h-13.645c-1.669-2.878-3.942-11.671-6.665-24.405
				c-3.038-14.103-8.649-19.404-20.624-19.864h-12.44v44.269h-13.178V78.756z M246.114,125.147h13.494
				c14.11,0,23.045-7.732,23.045-19.405c0-13.191-9.552-18.953-23.498-18.953c-6.362,0-10.755,0.607-13.042,1.217V125.147z"/>
			<path fill="#3F3F3F" d="M323.435,78.605c8.184-1.211,17.735-2.123,28.204-2.123c18.938,0,32.432,4.243,41.382,12.585
				c9.251,8.34,14.548,20.314,14.548,36.838c0,16.677-5.297,30.32-14.698,39.722c-9.702,9.552-25.467,14.703-45.325,14.703
				c-9.551,0-17.283-0.309-24.11-1.21V78.605z M336.776,169.116c3.34,0.602,8.185,0.602,13.344,0.602
				c28.189,0.15,43.503-15.766,43.503-43.353c0.151-24.415-13.492-39.426-41.383-39.426c-6.828,0-11.974,0.616-15.464,1.368V169.116
				z"/>
			<path fill="#3F3F3F" d="M486.407,131.51H446.83v36.839h44.271v11.069H433.5V77.236h55.328v11.071H446.83v32.296h39.577V131.51z"
				/>
			<path fill="#3F3F3F" d="M517.335,179.419V77.236h14.547l32.597,51.702c7.43,11.973,13.493,22.588,18.187,33.198l0.465-0.148
				c-1.217-13.643-1.518-26.077-1.518-41.843V77.236h12.426v102.183h-13.344l-32.432-51.849
				c-7.131-11.366-13.96-23.04-18.956-34.103l-0.45,0.15c0.753,12.884,0.904,25.167,0.904,42.142v43.66H517.335z"/>
		</g>
	</g>
	<g>
		<g>
			<path fill="#3F3F3F" d="M86.694,203.644c1.86-0.355,4.31-0.631,7.43-0.631c3.819,0,6.624,0.891,8.403,2.491
				c1.642,1.425,2.669,3.605,2.669,6.273c0,2.719-0.809,4.853-2.355,6.405c-2.053,2.185-5.391,3.293-9.168,3.293
				c-1.149,0-2.217-0.042-3.106-0.268v12.008h-3.873V203.644z M90.567,218.052c0.834,0.222,1.957,0.311,3.202,0.311
				c4.707,0,7.513-2.313,7.513-6.357c0-4.012-2.806-5.921-7.076-5.921c-1.683,0-2.983,0.178-3.64,0.311V218.052z"/>
			<path fill="#3F3F3F" d="M128.488,203.24v12.542h14.505V203.24h3.914v29.976h-3.914v-14.052h-14.505v14.052h-3.914V203.24H128.488
				z"/>
			<path fill="#3F3F3F" d="M179.586,233.707c-7.965,0-13.479-6.143-13.479-15.217c0-9.51,5.871-15.738,13.876-15.738
				c8.224,0,13.521,6.269,13.521,15.165c0,10.278-6.268,15.79-13.876,15.79H179.586z M179.765,230.547
				c6.131,0,9.606-5.65,9.606-12.452c0-5.961-3.12-12.185-9.565-12.185c-6.445,0-9.648,5.999-9.648,12.498
				c0,6.31,3.463,12.139,9.552,12.139H179.765z"/>
			<path fill="#3F3F3F" d="M217.247,206.529h-9.114v-3.289h22.183v3.289h-9.156v26.687h-3.914V206.529z"/>
			<path fill="#3F3F3F" d="M258.412,233.707c-7.965,0-13.48-6.143-13.48-15.217c0-9.51,5.872-15.738,13.878-15.738
				c8.237,0,13.519,6.269,13.519,15.165c0,10.278-6.267,15.79-13.875,15.79H258.412z M258.59,230.547
				c6.144,0,9.605-5.65,9.605-12.452c0-5.961-3.105-12.185-9.564-12.185c-6.445,0-9.648,5.999-9.648,12.498
				c0,6.31,3.476,12.139,9.566,12.139H258.59z"/>
			<path fill="#3F3F3F" d="M314.82,228.502c1.736,1.114,4.229,1.955,6.896,1.955c3.956,0,6.27-2.044,6.27-5.108
				c0-2.766-1.602-4.407-5.652-5.922c-4.887-1.778-7.909-4.357-7.909-8.536c0-4.675,3.872-8.139,9.689-8.139
				c3.022,0,5.295,0.714,6.582,1.466l-1.069,3.16c-0.93-0.581-2.928-1.422-5.638-1.422c-4.092,0-5.651,2.443-5.651,4.489
				c0,2.804,1.819,4.179,5.952,5.782c5.077,2.003,7.61,4.396,7.61,8.804c0,4.629-3.381,8.676-10.456,8.676
				c-2.888,0-6.05-0.887-7.651-1.956L314.82,228.502z"/>
			<path fill="#3F3F3F" d="M357.188,206.529h-9.114v-3.289h22.197v3.289h-9.168v26.687h-3.915V206.529z"/>
			<path fill="#3F3F3F" d="M391.742,203.24v17.79c0,6.67,2.969,9.517,6.979,9.517c4.407,0,7.296-2.936,7.296-9.517v-17.79h3.913
				v17.522c0,9.21-4.846,12.944-11.346,12.944c-6.131,0-10.757-3.474-10.757-12.808V203.24H391.742z"/>
			<path fill="#3F3F3F" d="M430.867,203.644c2.409-0.355,5.199-0.631,8.28-0.631c5.554,0,9.51,1.247,12.137,3.694
				c2.71,2.452,4.27,5.961,4.27,10.813c0,4.885-1.56,8.894-4.312,11.644c-2.846,2.808-7.471,4.318-13.3,4.318
				c-2.806,0-5.076-0.089-7.075-0.356V203.644z M434.78,230.19c0.985,0.178,2.409,0.178,3.914,0.178
				c8.28,0.043,12.768-4.624,12.768-12.72c0.041-7.164-3.955-11.564-12.139-11.564c-2.011,0-3.517,0.178-4.543,0.406V230.19z"/>
			<path fill="#3F3F3F" d="M478.668,203.24v29.976h-3.913V203.24H478.668z"/>
			<path fill="#3F3F3F" d="M511.388,233.707c-7.964,0-13.478-6.143-13.478-15.217c0-9.51,5.869-15.738,13.875-15.738
				c8.226,0,13.521,6.269,13.521,15.165c0,10.278-6.268,15.79-13.877,15.79H511.388z M511.566,230.547
				c6.131,0,9.607-5.65,9.607-12.452c0-5.961-3.121-12.185-9.567-12.185c-6.445,0-9.648,5.999-9.648,12.498
				c0,6.31,3.464,12.139,9.553,12.139H511.566z"/>
		</g>
	</g>
</g>
</svg>
